M48
; DRILL file {KiCad 8.0.1} date 2024-06-07T19:57:48+0200
; FORMAT={-:-/ absolute / inch / decimal}
; #@! TF.CreationDate,2024-06-07T19:57:48+02:00
; #@! TF.GenerationSoftware,Kicad,Pcbnew,8.0.1
; #@! TF.FileFunction,Plated,1,2,PTH
FMAT,2
INCH
; #@! TA.AperFunction,Plated,PTH,ViaDrill
T1C0.0157
; #@! TA.AperFunction,Plated,PTH,ComponentDrill
T2C0.0315
; #@! TA.AperFunction,Plated,PTH,ComponentDrill
T3C0.0354
; #@! TA.AperFunction,Plated,PTH,ComponentDrill
T4C0.0394
%
G90
G05
T1
X3.5236Y-2.8346
X3.5433Y-2.6378
X3.5827Y-2.9921
X3.622Y-2.5591
X3.6811Y-2.6181
X3.8635Y-2.1115
X3.9173Y-2.1634
X4.0157Y-2.9134
X4.0945Y-2.4114
X4.1142Y-2.185
X4.2323Y-2.185
X4.4291Y-2.4409
X4.5079Y-2.5197
X4.5104Y-2.6352
T2
X3.9055Y-2.5374
X3.9055Y-2.6374
X3.9055Y-2.7374
X4.2055Y-2.5374
X4.2055Y-2.6374
X4.2055Y-2.7374
T3
X3.3583Y-2.5374
X3.3583Y-2.6177
X3.3583Y-2.698
X3.4583Y-2.5776
X3.4583Y-2.6579
X3.4583Y-2.7382
X4.5732Y-2.5374
X4.5732Y-2.6177
X4.5732Y-2.698
X4.6732Y-2.5776
X4.6732Y-2.6579
X4.6732Y-2.7382
T4
X3.3268Y-3.1496
X3.3268Y-3.2496
X3.4268Y-3.1496
X3.4268Y-3.2496
X3.5268Y-3.1496
X3.5268Y-3.2496
X3.6268Y-3.1496
X3.6268Y-3.2496
X3.7268Y-3.1496
X3.7268Y-3.2496
X3.8268Y-3.1496
X3.8268Y-3.2496
X3.9268Y-3.1496
X3.9268Y-3.2496
X4.0268Y-3.1496
X4.0268Y-3.2496
M30
