%TF.GenerationSoftware,KiCad,Pcbnew,8.0.1*%
%TF.CreationDate,2024-05-29T09:24:11+02:00*%
%TF.ProjectId,KiCad schema,4b694361-6420-4736-9368-656d612e6b69,rev?*%
%TF.SameCoordinates,Original*%
%TF.FileFunction,Paste,Top*%
%TF.FilePolarity,Positive*%
%FSLAX46Y46*%
G04 Gerber Fmt 4.6, Leading zero omitted, Abs format (unit mm)*
G04 Created by KiCad (PCBNEW 8.0.1) date 2024-05-29 09:24:11*
%MOMM*%
%LPD*%
G01*
G04 APERTURE LIST*
G04 Aperture macros list*
%AMRoundRect*
0 Rectangle with rounded corners*
0 $1 Rounding radius*
0 $2 $3 $4 $5 $6 $7 $8 $9 X,Y pos of 4 corners*
0 Add a 4 corners polygon primitive as box body*
4,1,4,$2,$3,$4,$5,$6,$7,$8,$9,$2,$3,0*
0 Add four circle primitives for the rounded corners*
1,1,$1+$1,$2,$3*
1,1,$1+$1,$4,$5*
1,1,$1+$1,$6,$7*
1,1,$1+$1,$8,$9*
0 Add four rect primitives between the rounded corners*
20,1,$1+$1,$2,$3,$4,$5,0*
20,1,$1+$1,$4,$5,$6,$7,0*
20,1,$1+$1,$6,$7,$8,$9,0*
20,1,$1+$1,$8,$9,$2,$3,0*%
G04 Aperture macros list end*
%ADD10RoundRect,0.250000X0.262500X0.450000X-0.262500X0.450000X-0.262500X-0.450000X0.262500X-0.450000X0*%
%ADD11R,0.700000X1.550000*%
%ADD12RoundRect,0.250000X0.250000X0.475000X-0.250000X0.475000X-0.250000X-0.475000X0.250000X-0.475000X0*%
%ADD13RoundRect,0.150000X-0.587500X-0.150000X0.587500X-0.150000X0.587500X0.150000X-0.587500X0.150000X0*%
%ADD14RoundRect,0.150000X-0.150000X-0.200000X0.150000X-0.200000X0.150000X0.200000X-0.150000X0.200000X0*%
%ADD15R,1.500000X1.780000*%
%ADD16RoundRect,0.250000X-0.450000X0.262500X-0.450000X-0.262500X0.450000X-0.262500X0.450000X0.262500X0*%
%ADD17RoundRect,0.250000X-0.262500X-0.450000X0.262500X-0.450000X0.262500X0.450000X-0.262500X0.450000X0*%
%ADD18R,2.000000X1.780000*%
G04 APERTURE END LIST*
D10*
%TO.C,R1*%
X102912500Y-76500000D03*
X101087500Y-76500000D03*
%TD*%
D11*
%TO.C,IC1*%
X102190000Y-57725000D03*
X103460000Y-57725000D03*
X104730000Y-57725000D03*
X106000000Y-57725000D03*
X107270000Y-57725000D03*
X108540000Y-57725000D03*
X109810000Y-57725000D03*
X109810000Y-52275000D03*
X108540000Y-52275000D03*
X107270000Y-52275000D03*
X106000000Y-52275000D03*
X104730000Y-52275000D03*
X103460000Y-52275000D03*
X102190000Y-52275000D03*
%TD*%
D12*
%TO.C,C1*%
X85450000Y-76000000D03*
X83550000Y-76000000D03*
%TD*%
D13*
%TO.C,Q1*%
X93500000Y-63100000D03*
X93500000Y-65000000D03*
X95375000Y-64050000D03*
%TD*%
D14*
%TO.C,D3*%
X111200000Y-70500000D03*
X109800000Y-70500000D03*
%TD*%
D15*
%TO.C,U1*%
X95265000Y-57270000D03*
X95265000Y-54730000D03*
X85735000Y-54730000D03*
X85735000Y-57270000D03*
%TD*%
D16*
%TO.C,R3*%
X92500000Y-72087500D03*
X92500000Y-73912500D03*
%TD*%
D13*
%TO.C,Q2*%
X93500000Y-68100000D03*
X93500000Y-70000000D03*
X95375000Y-69050000D03*
%TD*%
D16*
%TO.C,R5*%
X113500000Y-52087500D03*
X113500000Y-53912500D03*
%TD*%
D17*
%TO.C,R4*%
X95587500Y-74500000D03*
X97412500Y-74500000D03*
%TD*%
D18*
%TO.C,SW1*%
X99190000Y-64460000D03*
X99190000Y-67000000D03*
X99190000Y-69540000D03*
X106810000Y-69540000D03*
X106810000Y-67000000D03*
X106810000Y-64460000D03*
%TD*%
D14*
%TO.C,D1*%
X111200000Y-64500000D03*
X109800000Y-64500000D03*
%TD*%
D10*
%TO.C,R6*%
X111912500Y-74500000D03*
X110087500Y-74500000D03*
%TD*%
D17*
%TO.C,R2*%
X108587500Y-61500000D03*
X110412500Y-61500000D03*
%TD*%
D14*
%TO.C,D2*%
X111200000Y-67500000D03*
X109800000Y-67500000D03*
%TD*%
M02*
