%TF.GenerationSoftware,KiCad,Pcbnew,8.0.1*%
%TF.CreationDate,2024-06-07T19:57:47+02:00*%
%TF.ProjectId,needforheat-p1-base-hardware,6e656564-666f-4726-9865-61742d70312d,rev?*%
%TF.SameCoordinates,Original*%
%TF.FileFunction,Legend,Top*%
%TF.FilePolarity,Positive*%
%FSLAX46Y46*%
G04 Gerber Fmt 4.6, Leading zero omitted, Abs format (unit mm)*
G04 Created by KiCad (PCBNEW 8.0.1) date 2024-06-07 19:57:47*
%MOMM*%
%LPD*%
G01*
G04 APERTURE LIST*
G04 Aperture macros list*
%AMRoundRect*
0 Rectangle with rounded corners*
0 $1 Rounding radius*
0 $2 $3 $4 $5 $6 $7 $8 $9 X,Y pos of 4 corners*
0 Add a 4 corners polygon primitive as box body*
4,1,4,$2,$3,$4,$5,$6,$7,$8,$9,$2,$3,0*
0 Add four circle primitives for the rounded corners*
1,1,$1+$1,$2,$3*
1,1,$1+$1,$4,$5*
1,1,$1+$1,$6,$7*
1,1,$1+$1,$8,$9*
0 Add four rect primitives between the rounded corners*
20,1,$1+$1,$2,$3,$4,$5,0*
20,1,$1+$1,$4,$5,$6,$7,0*
20,1,$1+$1,$6,$7,$8,$9,0*
20,1,$1+$1,$8,$9,$2,$3,0*%
G04 Aperture macros list end*
%ADD10C,0.155000*%
%ADD11C,0.254000*%
%ADD12C,0.153000*%
%ADD13C,0.120000*%
%ADD14C,0.200000*%
%ADD15RoundRect,0.250000X0.262500X0.450000X-0.262500X0.450000X-0.262500X-0.450000X0.262500X-0.450000X0*%
%ADD16R,0.700000X1.550000*%
%ADD17C,2.300000*%
%ADD18R,1.520000X1.520000*%
%ADD19C,1.520000*%
%ADD20RoundRect,0.112500X-0.187500X-0.112500X0.187500X-0.112500X0.187500X0.112500X-0.187500X0.112500X0*%
%ADD21RoundRect,0.250000X-0.475000X0.250000X-0.475000X-0.250000X0.475000X-0.250000X0.475000X0.250000X0*%
%ADD22RoundRect,0.137500X0.587500X0.137500X-0.587500X0.137500X-0.587500X-0.137500X0.587500X-0.137500X0*%
%ADD23RoundRect,0.150000X-0.587500X-0.150000X0.587500X-0.150000X0.587500X0.150000X-0.587500X0.150000X0*%
%ADD24RoundRect,0.250000X-0.450000X0.262500X-0.450000X-0.262500X0.450000X-0.262500X0.450000X0.262500X0*%
%ADD25RoundRect,0.112500X0.187500X0.112500X-0.187500X0.112500X-0.187500X-0.112500X0.187500X-0.112500X0*%
%ADD26RoundRect,0.250000X-0.262500X-0.450000X0.262500X-0.450000X0.262500X0.450000X-0.262500X0.450000X0*%
%ADD27R,1.600000X1.600000*%
%ADD28O,1.600000X1.600000*%
%ADD29RoundRect,0.112500X-0.112500X0.187500X-0.112500X-0.187500X0.112500X-0.187500X0.112500X0.187500X0*%
%ADD30RoundRect,0.150000X0.512500X0.150000X-0.512500X0.150000X-0.512500X-0.150000X0.512500X-0.150000X0*%
%ADD31O,1.700000X1.700000*%
%ADD32R,1.700000X1.700000*%
G04 APERTURE END LIST*
D10*
X106792449Y-82464797D02*
X106840068Y-82417178D01*
X106840068Y-82417178D02*
X106935306Y-82369559D01*
X106935306Y-82369559D02*
X107173401Y-82369559D01*
X107173401Y-82369559D02*
X107268639Y-82417178D01*
X107268639Y-82417178D02*
X107316258Y-82464797D01*
X107316258Y-82464797D02*
X107363877Y-82560035D01*
X107363877Y-82560035D02*
X107363877Y-82655273D01*
X107363877Y-82655273D02*
X107316258Y-82798130D01*
X107316258Y-82798130D02*
X106744830Y-83369559D01*
X106744830Y-83369559D02*
X107363877Y-83369559D01*
X107982925Y-82369559D02*
X108078163Y-82369559D01*
X108078163Y-82369559D02*
X108173401Y-82417178D01*
X108173401Y-82417178D02*
X108221020Y-82464797D01*
X108221020Y-82464797D02*
X108268639Y-82560035D01*
X108268639Y-82560035D02*
X108316258Y-82750511D01*
X108316258Y-82750511D02*
X108316258Y-82988606D01*
X108316258Y-82988606D02*
X108268639Y-83179082D01*
X108268639Y-83179082D02*
X108221020Y-83274320D01*
X108221020Y-83274320D02*
X108173401Y-83321940D01*
X108173401Y-83321940D02*
X108078163Y-83369559D01*
X108078163Y-83369559D02*
X107982925Y-83369559D01*
X107982925Y-83369559D02*
X107887687Y-83321940D01*
X107887687Y-83321940D02*
X107840068Y-83274320D01*
X107840068Y-83274320D02*
X107792449Y-83179082D01*
X107792449Y-83179082D02*
X107744830Y-82988606D01*
X107744830Y-82988606D02*
X107744830Y-82750511D01*
X107744830Y-82750511D02*
X107792449Y-82560035D01*
X107792449Y-82560035D02*
X107840068Y-82464797D01*
X107840068Y-82464797D02*
X107887687Y-82417178D01*
X107887687Y-82417178D02*
X107982925Y-82369559D01*
X108697211Y-82464797D02*
X108744830Y-82417178D01*
X108744830Y-82417178D02*
X108840068Y-82369559D01*
X108840068Y-82369559D02*
X109078163Y-82369559D01*
X109078163Y-82369559D02*
X109173401Y-82417178D01*
X109173401Y-82417178D02*
X109221020Y-82464797D01*
X109221020Y-82464797D02*
X109268639Y-82560035D01*
X109268639Y-82560035D02*
X109268639Y-82655273D01*
X109268639Y-82655273D02*
X109221020Y-82798130D01*
X109221020Y-82798130D02*
X108649592Y-83369559D01*
X108649592Y-83369559D02*
X109268639Y-83369559D01*
X110125782Y-82702892D02*
X110125782Y-83369559D01*
X109887687Y-82321940D02*
X109649592Y-83036225D01*
X109649592Y-83036225D02*
X110268639Y-83036225D01*
X110649592Y-82988606D02*
X111411497Y-82988606D01*
X112078163Y-82369559D02*
X112173401Y-82369559D01*
X112173401Y-82369559D02*
X112268639Y-82417178D01*
X112268639Y-82417178D02*
X112316258Y-82464797D01*
X112316258Y-82464797D02*
X112363877Y-82560035D01*
X112363877Y-82560035D02*
X112411496Y-82750511D01*
X112411496Y-82750511D02*
X112411496Y-82988606D01*
X112411496Y-82988606D02*
X112363877Y-83179082D01*
X112363877Y-83179082D02*
X112316258Y-83274320D01*
X112316258Y-83274320D02*
X112268639Y-83321940D01*
X112268639Y-83321940D02*
X112173401Y-83369559D01*
X112173401Y-83369559D02*
X112078163Y-83369559D01*
X112078163Y-83369559D02*
X111982925Y-83321940D01*
X111982925Y-83321940D02*
X111935306Y-83274320D01*
X111935306Y-83274320D02*
X111887687Y-83179082D01*
X111887687Y-83179082D02*
X111840068Y-82988606D01*
X111840068Y-82988606D02*
X111840068Y-82750511D01*
X111840068Y-82750511D02*
X111887687Y-82560035D01*
X111887687Y-82560035D02*
X111935306Y-82464797D01*
X111935306Y-82464797D02*
X111982925Y-82417178D01*
X111982925Y-82417178D02*
X112078163Y-82369559D01*
X113268639Y-82369559D02*
X113078163Y-82369559D01*
X113078163Y-82369559D02*
X112982925Y-82417178D01*
X112982925Y-82417178D02*
X112935306Y-82464797D01*
X112935306Y-82464797D02*
X112840068Y-82607654D01*
X112840068Y-82607654D02*
X112792449Y-82798130D01*
X112792449Y-82798130D02*
X112792449Y-83179082D01*
X112792449Y-83179082D02*
X112840068Y-83274320D01*
X112840068Y-83274320D02*
X112887687Y-83321940D01*
X112887687Y-83321940D02*
X112982925Y-83369559D01*
X112982925Y-83369559D02*
X113173401Y-83369559D01*
X113173401Y-83369559D02*
X113268639Y-83321940D01*
X113268639Y-83321940D02*
X113316258Y-83274320D01*
X113316258Y-83274320D02*
X113363877Y-83179082D01*
X113363877Y-83179082D02*
X113363877Y-82940987D01*
X113363877Y-82940987D02*
X113316258Y-82845749D01*
X113316258Y-82845749D02*
X113268639Y-82798130D01*
X113268639Y-82798130D02*
X113173401Y-82750511D01*
X113173401Y-82750511D02*
X112982925Y-82750511D01*
X112982925Y-82750511D02*
X112887687Y-82798130D01*
X112887687Y-82798130D02*
X112840068Y-82845749D01*
X112840068Y-82845749D02*
X112792449Y-82940987D01*
X113792449Y-82988606D02*
X114554354Y-82988606D01*
X115221020Y-82369559D02*
X115316258Y-82369559D01*
X115316258Y-82369559D02*
X115411496Y-82417178D01*
X115411496Y-82417178D02*
X115459115Y-82464797D01*
X115459115Y-82464797D02*
X115506734Y-82560035D01*
X115506734Y-82560035D02*
X115554353Y-82750511D01*
X115554353Y-82750511D02*
X115554353Y-82988606D01*
X115554353Y-82988606D02*
X115506734Y-83179082D01*
X115506734Y-83179082D02*
X115459115Y-83274320D01*
X115459115Y-83274320D02*
X115411496Y-83321940D01*
X115411496Y-83321940D02*
X115316258Y-83369559D01*
X115316258Y-83369559D02*
X115221020Y-83369559D01*
X115221020Y-83369559D02*
X115125782Y-83321940D01*
X115125782Y-83321940D02*
X115078163Y-83274320D01*
X115078163Y-83274320D02*
X115030544Y-83179082D01*
X115030544Y-83179082D02*
X114982925Y-82988606D01*
X114982925Y-82988606D02*
X114982925Y-82750511D01*
X114982925Y-82750511D02*
X115030544Y-82560035D01*
X115030544Y-82560035D02*
X115078163Y-82464797D01*
X115078163Y-82464797D02*
X115125782Y-82417178D01*
X115125782Y-82417178D02*
X115221020Y-82369559D01*
X115887687Y-82369559D02*
X116554353Y-82369559D01*
X116554353Y-82369559D02*
X116125782Y-83369559D01*
X117601973Y-82702892D02*
X117840068Y-83369559D01*
X117840068Y-83369559D02*
X118078163Y-82702892D01*
X118411497Y-82464797D02*
X118459116Y-82417178D01*
X118459116Y-82417178D02*
X118554354Y-82369559D01*
X118554354Y-82369559D02*
X118792449Y-82369559D01*
X118792449Y-82369559D02*
X118887687Y-82417178D01*
X118887687Y-82417178D02*
X118935306Y-82464797D01*
X118935306Y-82464797D02*
X118982925Y-82560035D01*
X118982925Y-82560035D02*
X118982925Y-82655273D01*
X118982925Y-82655273D02*
X118935306Y-82798130D01*
X118935306Y-82798130D02*
X118363878Y-83369559D01*
X118363878Y-83369559D02*
X118982925Y-83369559D01*
X119411497Y-83274320D02*
X119459116Y-83321940D01*
X119459116Y-83321940D02*
X119411497Y-83369559D01*
X119411497Y-83369559D02*
X119363878Y-83321940D01*
X119363878Y-83321940D02*
X119411497Y-83274320D01*
X119411497Y-83274320D02*
X119411497Y-83369559D01*
X119792449Y-82369559D02*
X120459115Y-82369559D01*
X120459115Y-82369559D02*
X120030544Y-83369559D01*
X107911496Y-81274320D02*
X107863877Y-81321940D01*
X107863877Y-81321940D02*
X107721020Y-81369559D01*
X107721020Y-81369559D02*
X107625782Y-81369559D01*
X107625782Y-81369559D02*
X107482925Y-81321940D01*
X107482925Y-81321940D02*
X107387687Y-81226701D01*
X107387687Y-81226701D02*
X107340068Y-81131463D01*
X107340068Y-81131463D02*
X107292449Y-80940987D01*
X107292449Y-80940987D02*
X107292449Y-80798130D01*
X107292449Y-80798130D02*
X107340068Y-80607654D01*
X107340068Y-80607654D02*
X107387687Y-80512416D01*
X107387687Y-80512416D02*
X107482925Y-80417178D01*
X107482925Y-80417178D02*
X107625782Y-80369559D01*
X107625782Y-80369559D02*
X107721020Y-80369559D01*
X107721020Y-80369559D02*
X107863877Y-80417178D01*
X107863877Y-80417178D02*
X107911496Y-80464797D01*
X108340068Y-80845749D02*
X108673401Y-80845749D01*
X108816258Y-81369559D02*
X108340068Y-81369559D01*
X108340068Y-81369559D02*
X108340068Y-80369559D01*
X108340068Y-80369559D02*
X108816258Y-80369559D01*
X109816258Y-81369559D02*
X109482925Y-80893368D01*
X109244830Y-81369559D02*
X109244830Y-80369559D01*
X109244830Y-80369559D02*
X109625782Y-80369559D01*
X109625782Y-80369559D02*
X109721020Y-80417178D01*
X109721020Y-80417178D02*
X109768639Y-80464797D01*
X109768639Y-80464797D02*
X109816258Y-80560035D01*
X109816258Y-80560035D02*
X109816258Y-80702892D01*
X109816258Y-80702892D02*
X109768639Y-80798130D01*
X109768639Y-80798130D02*
X109721020Y-80845749D01*
X109721020Y-80845749D02*
X109625782Y-80893368D01*
X109625782Y-80893368D02*
X109244830Y-80893368D01*
X110244830Y-81369559D02*
X110244830Y-80369559D01*
X110244830Y-80369559D02*
X110816258Y-81369559D01*
X110816258Y-81369559D02*
X110816258Y-80369559D01*
X111292449Y-80988606D02*
X112054354Y-80988606D01*
X112721020Y-80369559D02*
X112911496Y-80369559D01*
X112911496Y-80369559D02*
X113006734Y-80417178D01*
X113006734Y-80417178D02*
X113101972Y-80512416D01*
X113101972Y-80512416D02*
X113149591Y-80702892D01*
X113149591Y-80702892D02*
X113149591Y-81036225D01*
X113149591Y-81036225D02*
X113101972Y-81226701D01*
X113101972Y-81226701D02*
X113006734Y-81321940D01*
X113006734Y-81321940D02*
X112911496Y-81369559D01*
X112911496Y-81369559D02*
X112721020Y-81369559D01*
X112721020Y-81369559D02*
X112625782Y-81321940D01*
X112625782Y-81321940D02*
X112530544Y-81226701D01*
X112530544Y-81226701D02*
X112482925Y-81036225D01*
X112482925Y-81036225D02*
X112482925Y-80702892D01*
X112482925Y-80702892D02*
X112530544Y-80512416D01*
X112530544Y-80512416D02*
X112625782Y-80417178D01*
X112625782Y-80417178D02*
X112721020Y-80369559D01*
X113578163Y-81369559D02*
X113578163Y-80369559D01*
X113578163Y-80845749D02*
X114149591Y-80845749D01*
X114149591Y-81369559D02*
X114149591Y-80369559D01*
X115101972Y-81369559D02*
X114625782Y-81369559D01*
X114625782Y-81369559D02*
X114625782Y-80369559D01*
X115435306Y-80988606D02*
X116197211Y-80988606D01*
X116673401Y-81369559D02*
X116673401Y-80369559D01*
X116673401Y-80369559D02*
X117054353Y-80369559D01*
X117054353Y-80369559D02*
X117149591Y-80417178D01*
X117149591Y-80417178D02*
X117197210Y-80464797D01*
X117197210Y-80464797D02*
X117244829Y-80560035D01*
X117244829Y-80560035D02*
X117244829Y-80702892D01*
X117244829Y-80702892D02*
X117197210Y-80798130D01*
X117197210Y-80798130D02*
X117149591Y-80845749D01*
X117149591Y-80845749D02*
X117054353Y-80893368D01*
X117054353Y-80893368D02*
X116673401Y-80893368D01*
X117673401Y-80988606D02*
X118435306Y-80988606D01*
X118768639Y-80369559D02*
X119101972Y-81369559D01*
X119101972Y-81369559D02*
X119435305Y-80369559D01*
X119721020Y-80464797D02*
X119768639Y-80417178D01*
X119768639Y-80417178D02*
X119863877Y-80369559D01*
X119863877Y-80369559D02*
X120101972Y-80369559D01*
X120101972Y-80369559D02*
X120197210Y-80417178D01*
X120197210Y-80417178D02*
X120244829Y-80464797D01*
X120244829Y-80464797D02*
X120292448Y-80560035D01*
X120292448Y-80560035D02*
X120292448Y-80655273D01*
X120292448Y-80655273D02*
X120244829Y-80798130D01*
X120244829Y-80798130D02*
X119673401Y-81369559D01*
X119673401Y-81369559D02*
X120292448Y-81369559D01*
X101833333Y-78604559D02*
X101500000Y-78128368D01*
X101261905Y-78604559D02*
X101261905Y-77604559D01*
X101261905Y-77604559D02*
X101642857Y-77604559D01*
X101642857Y-77604559D02*
X101738095Y-77652178D01*
X101738095Y-77652178D02*
X101785714Y-77699797D01*
X101785714Y-77699797D02*
X101833333Y-77795035D01*
X101833333Y-77795035D02*
X101833333Y-77937892D01*
X101833333Y-77937892D02*
X101785714Y-78033130D01*
X101785714Y-78033130D02*
X101738095Y-78080749D01*
X101738095Y-78080749D02*
X101642857Y-78128368D01*
X101642857Y-78128368D02*
X101261905Y-78128368D01*
X102785714Y-78604559D02*
X102214286Y-78604559D01*
X102500000Y-78604559D02*
X102500000Y-77604559D01*
X102500000Y-77604559D02*
X102404762Y-77747416D01*
X102404762Y-77747416D02*
X102309524Y-77842654D01*
X102309524Y-77842654D02*
X102214286Y-77890273D01*
D11*
X113534318Y-55514762D02*
X112264318Y-55514762D01*
X113413365Y-54184285D02*
X113473842Y-54244761D01*
X113473842Y-54244761D02*
X113534318Y-54426190D01*
X113534318Y-54426190D02*
X113534318Y-54547142D01*
X113534318Y-54547142D02*
X113473842Y-54728571D01*
X113473842Y-54728571D02*
X113352889Y-54849523D01*
X113352889Y-54849523D02*
X113231937Y-54910000D01*
X113231937Y-54910000D02*
X112990032Y-54970476D01*
X112990032Y-54970476D02*
X112808603Y-54970476D01*
X112808603Y-54970476D02*
X112566699Y-54910000D01*
X112566699Y-54910000D02*
X112445746Y-54849523D01*
X112445746Y-54849523D02*
X112324794Y-54728571D01*
X112324794Y-54728571D02*
X112264318Y-54547142D01*
X112264318Y-54547142D02*
X112264318Y-54426190D01*
X112264318Y-54426190D02*
X112324794Y-54244761D01*
X112324794Y-54244761D02*
X112385270Y-54184285D01*
X113534318Y-52974761D02*
X113534318Y-53700476D01*
X113534318Y-53337619D02*
X112264318Y-53337619D01*
X112264318Y-53337619D02*
X112445746Y-53458571D01*
X112445746Y-53458571D02*
X112566699Y-53579523D01*
X112566699Y-53579523D02*
X112627175Y-53700476D01*
D12*
X90469663Y-62898333D02*
X91183948Y-62898333D01*
X91183948Y-62898333D02*
X91326805Y-62945952D01*
X91326805Y-62945952D02*
X91422044Y-63041190D01*
X91422044Y-63041190D02*
X91469663Y-63184047D01*
X91469663Y-63184047D02*
X91469663Y-63279285D01*
X90469663Y-62517380D02*
X90469663Y-61898333D01*
X90469663Y-61898333D02*
X90850615Y-62231666D01*
X90850615Y-62231666D02*
X90850615Y-62088809D01*
X90850615Y-62088809D02*
X90898234Y-61993571D01*
X90898234Y-61993571D02*
X90945853Y-61945952D01*
X90945853Y-61945952D02*
X91041091Y-61898333D01*
X91041091Y-61898333D02*
X91279186Y-61898333D01*
X91279186Y-61898333D02*
X91374424Y-61945952D01*
X91374424Y-61945952D02*
X91422044Y-61993571D01*
X91422044Y-61993571D02*
X91469663Y-62088809D01*
X91469663Y-62088809D02*
X91469663Y-62374523D01*
X91469663Y-62374523D02*
X91422044Y-62469761D01*
X91422044Y-62469761D02*
X91374424Y-62517380D01*
X99261905Y-59104663D02*
X99261905Y-58104663D01*
X99261905Y-58104663D02*
X99500000Y-58104663D01*
X99500000Y-58104663D02*
X99642857Y-58152282D01*
X99642857Y-58152282D02*
X99738095Y-58247520D01*
X99738095Y-58247520D02*
X99785714Y-58342758D01*
X99785714Y-58342758D02*
X99833333Y-58533234D01*
X99833333Y-58533234D02*
X99833333Y-58676091D01*
X99833333Y-58676091D02*
X99785714Y-58866567D01*
X99785714Y-58866567D02*
X99738095Y-58961805D01*
X99738095Y-58961805D02*
X99642857Y-59057044D01*
X99642857Y-59057044D02*
X99500000Y-59104663D01*
X99500000Y-59104663D02*
X99261905Y-59104663D01*
X100738095Y-58104663D02*
X100261905Y-58104663D01*
X100261905Y-58104663D02*
X100214286Y-58580853D01*
X100214286Y-58580853D02*
X100261905Y-58533234D01*
X100261905Y-58533234D02*
X100357143Y-58485615D01*
X100357143Y-58485615D02*
X100595238Y-58485615D01*
X100595238Y-58485615D02*
X100690476Y-58533234D01*
X100690476Y-58533234D02*
X100738095Y-58580853D01*
X100738095Y-58580853D02*
X100785714Y-58676091D01*
X100785714Y-58676091D02*
X100785714Y-58914186D01*
X100785714Y-58914186D02*
X100738095Y-59009424D01*
X100738095Y-59009424D02*
X100690476Y-59057044D01*
X100690476Y-59057044D02*
X100595238Y-59104663D01*
X100595238Y-59104663D02*
X100357143Y-59104663D01*
X100357143Y-59104663D02*
X100261905Y-59057044D01*
X100261905Y-59057044D02*
X100214286Y-59009424D01*
X85420833Y-58454663D02*
X85087500Y-57978472D01*
X84849405Y-58454663D02*
X84849405Y-57454663D01*
X84849405Y-57454663D02*
X85230357Y-57454663D01*
X85230357Y-57454663D02*
X85325595Y-57502282D01*
X85325595Y-57502282D02*
X85373214Y-57549901D01*
X85373214Y-57549901D02*
X85420833Y-57645139D01*
X85420833Y-57645139D02*
X85420833Y-57787996D01*
X85420833Y-57787996D02*
X85373214Y-57883234D01*
X85373214Y-57883234D02*
X85325595Y-57930853D01*
X85325595Y-57930853D02*
X85230357Y-57978472D01*
X85230357Y-57978472D02*
X84849405Y-57978472D01*
X85754167Y-57454663D02*
X86420833Y-57454663D01*
X86420833Y-57454663D02*
X85992262Y-58454663D01*
D10*
X99859320Y-53666666D02*
X99906940Y-53714285D01*
X99906940Y-53714285D02*
X99954559Y-53857142D01*
X99954559Y-53857142D02*
X99954559Y-53952380D01*
X99954559Y-53952380D02*
X99906940Y-54095237D01*
X99906940Y-54095237D02*
X99811701Y-54190475D01*
X99811701Y-54190475D02*
X99716463Y-54238094D01*
X99716463Y-54238094D02*
X99525987Y-54285713D01*
X99525987Y-54285713D02*
X99383130Y-54285713D01*
X99383130Y-54285713D02*
X99192654Y-54238094D01*
X99192654Y-54238094D02*
X99097416Y-54190475D01*
X99097416Y-54190475D02*
X99002178Y-54095237D01*
X99002178Y-54095237D02*
X98954559Y-53952380D01*
X98954559Y-53952380D02*
X98954559Y-53857142D01*
X98954559Y-53857142D02*
X99002178Y-53714285D01*
X99002178Y-53714285D02*
X99049797Y-53666666D01*
X99954559Y-52714285D02*
X99954559Y-53285713D01*
X99954559Y-52999999D02*
X98954559Y-52999999D01*
X98954559Y-52999999D02*
X99097416Y-53095237D01*
X99097416Y-53095237D02*
X99192654Y-53190475D01*
X99192654Y-53190475D02*
X99240273Y-53285713D01*
D12*
X93238095Y-57954663D02*
X93238095Y-58764186D01*
X93238095Y-58764186D02*
X93285714Y-58859424D01*
X93285714Y-58859424D02*
X93333333Y-58907044D01*
X93333333Y-58907044D02*
X93428571Y-58954663D01*
X93428571Y-58954663D02*
X93619047Y-58954663D01*
X93619047Y-58954663D02*
X93714285Y-58907044D01*
X93714285Y-58907044D02*
X93761904Y-58859424D01*
X93761904Y-58859424D02*
X93809523Y-58764186D01*
X93809523Y-58764186D02*
X93809523Y-57954663D01*
X94809523Y-58954663D02*
X94238095Y-58954663D01*
X94523809Y-58954663D02*
X94523809Y-57954663D01*
X94523809Y-57954663D02*
X94428571Y-58097520D01*
X94428571Y-58097520D02*
X94333333Y-58192758D01*
X94333333Y-58192758D02*
X94238095Y-58240377D01*
X95404761Y-62199901D02*
X95309523Y-62152282D01*
X95309523Y-62152282D02*
X95214285Y-62057044D01*
X95214285Y-62057044D02*
X95071428Y-61914186D01*
X95071428Y-61914186D02*
X94976190Y-61866567D01*
X94976190Y-61866567D02*
X94880952Y-61866567D01*
X94928571Y-62104663D02*
X94833333Y-62057044D01*
X94833333Y-62057044D02*
X94738095Y-61961805D01*
X94738095Y-61961805D02*
X94690476Y-61771329D01*
X94690476Y-61771329D02*
X94690476Y-61437996D01*
X94690476Y-61437996D02*
X94738095Y-61247520D01*
X94738095Y-61247520D02*
X94833333Y-61152282D01*
X94833333Y-61152282D02*
X94928571Y-61104663D01*
X94928571Y-61104663D02*
X95119047Y-61104663D01*
X95119047Y-61104663D02*
X95214285Y-61152282D01*
X95214285Y-61152282D02*
X95309523Y-61247520D01*
X95309523Y-61247520D02*
X95357142Y-61437996D01*
X95357142Y-61437996D02*
X95357142Y-61771329D01*
X95357142Y-61771329D02*
X95309523Y-61961805D01*
X95309523Y-61961805D02*
X95214285Y-62057044D01*
X95214285Y-62057044D02*
X95119047Y-62104663D01*
X95119047Y-62104663D02*
X94928571Y-62104663D01*
X96309523Y-62104663D02*
X95738095Y-62104663D01*
X96023809Y-62104663D02*
X96023809Y-61104663D01*
X96023809Y-61104663D02*
X95928571Y-61247520D01*
X95928571Y-61247520D02*
X95833333Y-61342758D01*
X95833333Y-61342758D02*
X95738095Y-61390377D01*
D10*
X95604559Y-74166666D02*
X95128368Y-74499999D01*
X95604559Y-74738094D02*
X94604559Y-74738094D01*
X94604559Y-74738094D02*
X94604559Y-74357142D01*
X94604559Y-74357142D02*
X94652178Y-74261904D01*
X94652178Y-74261904D02*
X94699797Y-74214285D01*
X94699797Y-74214285D02*
X94795035Y-74166666D01*
X94795035Y-74166666D02*
X94937892Y-74166666D01*
X94937892Y-74166666D02*
X95033130Y-74214285D01*
X95033130Y-74214285D02*
X95080749Y-74261904D01*
X95080749Y-74261904D02*
X95128368Y-74357142D01*
X95128368Y-74357142D02*
X95128368Y-74738094D01*
X94604559Y-73833332D02*
X94604559Y-73214285D01*
X94604559Y-73214285D02*
X94985511Y-73547618D01*
X94985511Y-73547618D02*
X94985511Y-73404761D01*
X94985511Y-73404761D02*
X95033130Y-73309523D01*
X95033130Y-73309523D02*
X95080749Y-73261904D01*
X95080749Y-73261904D02*
X95175987Y-73214285D01*
X95175987Y-73214285D02*
X95414082Y-73214285D01*
X95414082Y-73214285D02*
X95509320Y-73261904D01*
X95509320Y-73261904D02*
X95556940Y-73309523D01*
X95556940Y-73309523D02*
X95604559Y-73404761D01*
X95604559Y-73404761D02*
X95604559Y-73690475D01*
X95604559Y-73690475D02*
X95556940Y-73785713D01*
X95556940Y-73785713D02*
X95509320Y-73833332D01*
X112454559Y-67333333D02*
X113168844Y-67333333D01*
X113168844Y-67333333D02*
X113311701Y-67380952D01*
X113311701Y-67380952D02*
X113406940Y-67476190D01*
X113406940Y-67476190D02*
X113454559Y-67619047D01*
X113454559Y-67619047D02*
X113454559Y-67714285D01*
X112549797Y-66904761D02*
X112502178Y-66857142D01*
X112502178Y-66857142D02*
X112454559Y-66761904D01*
X112454559Y-66761904D02*
X112454559Y-66523809D01*
X112454559Y-66523809D02*
X112502178Y-66428571D01*
X112502178Y-66428571D02*
X112549797Y-66380952D01*
X112549797Y-66380952D02*
X112645035Y-66333333D01*
X112645035Y-66333333D02*
X112740273Y-66333333D01*
X112740273Y-66333333D02*
X112883130Y-66380952D01*
X112883130Y-66380952D02*
X113454559Y-66952380D01*
X113454559Y-66952380D02*
X113454559Y-66333333D01*
D12*
X87711905Y-78804663D02*
X87711905Y-77804663D01*
X87711905Y-77804663D02*
X87950000Y-77804663D01*
X87950000Y-77804663D02*
X88092857Y-77852282D01*
X88092857Y-77852282D02*
X88188095Y-77947520D01*
X88188095Y-77947520D02*
X88235714Y-78042758D01*
X88235714Y-78042758D02*
X88283333Y-78233234D01*
X88283333Y-78233234D02*
X88283333Y-78376091D01*
X88283333Y-78376091D02*
X88235714Y-78566567D01*
X88235714Y-78566567D02*
X88188095Y-78661805D01*
X88188095Y-78661805D02*
X88092857Y-78757044D01*
X88092857Y-78757044D02*
X87950000Y-78804663D01*
X87950000Y-78804663D02*
X87711905Y-78804663D01*
X89140476Y-78137996D02*
X89140476Y-78804663D01*
X88902381Y-77757044D02*
X88664286Y-78471329D01*
X88664286Y-78471329D02*
X89283333Y-78471329D01*
D10*
X94342261Y-67199797D02*
X94247023Y-67152178D01*
X94247023Y-67152178D02*
X94151785Y-67056940D01*
X94151785Y-67056940D02*
X94008928Y-66914082D01*
X94008928Y-66914082D02*
X93913690Y-66866463D01*
X93913690Y-66866463D02*
X93818452Y-66866463D01*
X93866071Y-67104559D02*
X93770833Y-67056940D01*
X93770833Y-67056940D02*
X93675595Y-66961701D01*
X93675595Y-66961701D02*
X93627976Y-66771225D01*
X93627976Y-66771225D02*
X93627976Y-66437892D01*
X93627976Y-66437892D02*
X93675595Y-66247416D01*
X93675595Y-66247416D02*
X93770833Y-66152178D01*
X93770833Y-66152178D02*
X93866071Y-66104559D01*
X93866071Y-66104559D02*
X94056547Y-66104559D01*
X94056547Y-66104559D02*
X94151785Y-66152178D01*
X94151785Y-66152178D02*
X94247023Y-66247416D01*
X94247023Y-66247416D02*
X94294642Y-66437892D01*
X94294642Y-66437892D02*
X94294642Y-66771225D01*
X94294642Y-66771225D02*
X94247023Y-66961701D01*
X94247023Y-66961701D02*
X94151785Y-67056940D01*
X94151785Y-67056940D02*
X94056547Y-67104559D01*
X94056547Y-67104559D02*
X93866071Y-67104559D01*
X94675595Y-66199797D02*
X94723214Y-66152178D01*
X94723214Y-66152178D02*
X94818452Y-66104559D01*
X94818452Y-66104559D02*
X95056547Y-66104559D01*
X95056547Y-66104559D02*
X95151785Y-66152178D01*
X95151785Y-66152178D02*
X95199404Y-66199797D01*
X95199404Y-66199797D02*
X95247023Y-66295035D01*
X95247023Y-66295035D02*
X95247023Y-66390273D01*
X95247023Y-66390273D02*
X95199404Y-66533130D01*
X95199404Y-66533130D02*
X94627976Y-67104559D01*
X94627976Y-67104559D02*
X95247023Y-67104559D01*
D12*
X117604663Y-53166666D02*
X117128472Y-53499999D01*
X117604663Y-53738094D02*
X116604663Y-53738094D01*
X116604663Y-53738094D02*
X116604663Y-53357142D01*
X116604663Y-53357142D02*
X116652282Y-53261904D01*
X116652282Y-53261904D02*
X116699901Y-53214285D01*
X116699901Y-53214285D02*
X116795139Y-53166666D01*
X116795139Y-53166666D02*
X116937996Y-53166666D01*
X116937996Y-53166666D02*
X117033234Y-53214285D01*
X117033234Y-53214285D02*
X117080853Y-53261904D01*
X117080853Y-53261904D02*
X117128472Y-53357142D01*
X117128472Y-53357142D02*
X117128472Y-53738094D01*
X116604663Y-52261904D02*
X116604663Y-52738094D01*
X116604663Y-52738094D02*
X117080853Y-52785713D01*
X117080853Y-52785713D02*
X117033234Y-52738094D01*
X117033234Y-52738094D02*
X116985615Y-52642856D01*
X116985615Y-52642856D02*
X116985615Y-52404761D01*
X116985615Y-52404761D02*
X117033234Y-52309523D01*
X117033234Y-52309523D02*
X117080853Y-52261904D01*
X117080853Y-52261904D02*
X117176091Y-52214285D01*
X117176091Y-52214285D02*
X117414186Y-52214285D01*
X117414186Y-52214285D02*
X117509424Y-52261904D01*
X117509424Y-52261904D02*
X117557044Y-52309523D01*
X117557044Y-52309523D02*
X117604663Y-52404761D01*
X117604663Y-52404761D02*
X117604663Y-52642856D01*
X117604663Y-52642856D02*
X117557044Y-52738094D01*
X117557044Y-52738094D02*
X117509424Y-52785713D01*
D10*
X97420833Y-73804559D02*
X97087500Y-73328368D01*
X96849405Y-73804559D02*
X96849405Y-72804559D01*
X96849405Y-72804559D02*
X97230357Y-72804559D01*
X97230357Y-72804559D02*
X97325595Y-72852178D01*
X97325595Y-72852178D02*
X97373214Y-72899797D01*
X97373214Y-72899797D02*
X97420833Y-72995035D01*
X97420833Y-72995035D02*
X97420833Y-73137892D01*
X97420833Y-73137892D02*
X97373214Y-73233130D01*
X97373214Y-73233130D02*
X97325595Y-73280749D01*
X97325595Y-73280749D02*
X97230357Y-73328368D01*
X97230357Y-73328368D02*
X96849405Y-73328368D01*
X98277976Y-73137892D02*
X98277976Y-73804559D01*
X98039881Y-72756940D02*
X97801786Y-73471225D01*
X97801786Y-73471225D02*
X98420833Y-73471225D01*
D12*
X103166667Y-62527044D02*
X103309524Y-62574663D01*
X103309524Y-62574663D02*
X103547619Y-62574663D01*
X103547619Y-62574663D02*
X103642857Y-62527044D01*
X103642857Y-62527044D02*
X103690476Y-62479424D01*
X103690476Y-62479424D02*
X103738095Y-62384186D01*
X103738095Y-62384186D02*
X103738095Y-62288948D01*
X103738095Y-62288948D02*
X103690476Y-62193710D01*
X103690476Y-62193710D02*
X103642857Y-62146091D01*
X103642857Y-62146091D02*
X103547619Y-62098472D01*
X103547619Y-62098472D02*
X103357143Y-62050853D01*
X103357143Y-62050853D02*
X103261905Y-62003234D01*
X103261905Y-62003234D02*
X103214286Y-61955615D01*
X103214286Y-61955615D02*
X103166667Y-61860377D01*
X103166667Y-61860377D02*
X103166667Y-61765139D01*
X103166667Y-61765139D02*
X103214286Y-61669901D01*
X103214286Y-61669901D02*
X103261905Y-61622282D01*
X103261905Y-61622282D02*
X103357143Y-61574663D01*
X103357143Y-61574663D02*
X103595238Y-61574663D01*
X103595238Y-61574663D02*
X103738095Y-61622282D01*
X104071429Y-61574663D02*
X104309524Y-62574663D01*
X104309524Y-62574663D02*
X104500000Y-61860377D01*
X104500000Y-61860377D02*
X104690476Y-62574663D01*
X104690476Y-62574663D02*
X104928572Y-61574663D01*
X105833333Y-62574663D02*
X105261905Y-62574663D01*
X105547619Y-62574663D02*
X105547619Y-61574663D01*
X105547619Y-61574663D02*
X105452381Y-61717520D01*
X105452381Y-61717520D02*
X105357143Y-61812758D01*
X105357143Y-61812758D02*
X105261905Y-61860377D01*
X113304663Y-65238094D02*
X112304663Y-65238094D01*
X112304663Y-65238094D02*
X112304663Y-64999999D01*
X112304663Y-64999999D02*
X112352282Y-64857142D01*
X112352282Y-64857142D02*
X112447520Y-64761904D01*
X112447520Y-64761904D02*
X112542758Y-64714285D01*
X112542758Y-64714285D02*
X112733234Y-64666666D01*
X112733234Y-64666666D02*
X112876091Y-64666666D01*
X112876091Y-64666666D02*
X113066567Y-64714285D01*
X113066567Y-64714285D02*
X113161805Y-64761904D01*
X113161805Y-64761904D02*
X113257044Y-64857142D01*
X113257044Y-64857142D02*
X113304663Y-64999999D01*
X113304663Y-64999999D02*
X113304663Y-65238094D01*
X113304663Y-63714285D02*
X113304663Y-64285713D01*
X113304663Y-63999999D02*
X112304663Y-63999999D01*
X112304663Y-63999999D02*
X112447520Y-64095237D01*
X112447520Y-64095237D02*
X112542758Y-64190475D01*
X112542758Y-64190475D02*
X112590377Y-64285713D01*
X113304663Y-69738094D02*
X112304663Y-69738094D01*
X112304663Y-69738094D02*
X112304663Y-69499999D01*
X112304663Y-69499999D02*
X112352282Y-69357142D01*
X112352282Y-69357142D02*
X112447520Y-69261904D01*
X112447520Y-69261904D02*
X112542758Y-69214285D01*
X112542758Y-69214285D02*
X112733234Y-69166666D01*
X112733234Y-69166666D02*
X112876091Y-69166666D01*
X112876091Y-69166666D02*
X113066567Y-69214285D01*
X113066567Y-69214285D02*
X113161805Y-69261904D01*
X113161805Y-69261904D02*
X113257044Y-69357142D01*
X113257044Y-69357142D02*
X113304663Y-69499999D01*
X113304663Y-69499999D02*
X113304663Y-69738094D01*
X112399901Y-68785713D02*
X112352282Y-68738094D01*
X112352282Y-68738094D02*
X112304663Y-68642856D01*
X112304663Y-68642856D02*
X112304663Y-68404761D01*
X112304663Y-68404761D02*
X112352282Y-68309523D01*
X112352282Y-68309523D02*
X112399901Y-68261904D01*
X112399901Y-68261904D02*
X112495139Y-68214285D01*
X112495139Y-68214285D02*
X112590377Y-68214285D01*
X112590377Y-68214285D02*
X112733234Y-68261904D01*
X112733234Y-68261904D02*
X113304663Y-68833332D01*
X113304663Y-68833332D02*
X113304663Y-68214285D01*
X90404761Y-52049901D02*
X90309523Y-52002282D01*
X90309523Y-52002282D02*
X90214285Y-51907044D01*
X90214285Y-51907044D02*
X90071428Y-51764186D01*
X90071428Y-51764186D02*
X89976190Y-51716567D01*
X89976190Y-51716567D02*
X89880952Y-51716567D01*
X89928571Y-51954663D02*
X89833333Y-51907044D01*
X89833333Y-51907044D02*
X89738095Y-51811805D01*
X89738095Y-51811805D02*
X89690476Y-51621329D01*
X89690476Y-51621329D02*
X89690476Y-51287996D01*
X89690476Y-51287996D02*
X89738095Y-51097520D01*
X89738095Y-51097520D02*
X89833333Y-51002282D01*
X89833333Y-51002282D02*
X89928571Y-50954663D01*
X89928571Y-50954663D02*
X90119047Y-50954663D01*
X90119047Y-50954663D02*
X90214285Y-51002282D01*
X90214285Y-51002282D02*
X90309523Y-51097520D01*
X90309523Y-51097520D02*
X90357142Y-51287996D01*
X90357142Y-51287996D02*
X90357142Y-51621329D01*
X90357142Y-51621329D02*
X90309523Y-51811805D01*
X90309523Y-51811805D02*
X90214285Y-51907044D01*
X90214285Y-51907044D02*
X90119047Y-51954663D01*
X90119047Y-51954663D02*
X89928571Y-51954663D01*
X90690476Y-50954663D02*
X91309523Y-50954663D01*
X91309523Y-50954663D02*
X90976190Y-51335615D01*
X90976190Y-51335615D02*
X91119047Y-51335615D01*
X91119047Y-51335615D02*
X91214285Y-51383234D01*
X91214285Y-51383234D02*
X91261904Y-51430853D01*
X91261904Y-51430853D02*
X91309523Y-51526091D01*
X91309523Y-51526091D02*
X91309523Y-51764186D01*
X91309523Y-51764186D02*
X91261904Y-51859424D01*
X91261904Y-51859424D02*
X91214285Y-51907044D01*
X91214285Y-51907044D02*
X91119047Y-51954663D01*
X91119047Y-51954663D02*
X90833333Y-51954663D01*
X90833333Y-51954663D02*
X90738095Y-51907044D01*
X90738095Y-51907044D02*
X90690476Y-51859424D01*
X113304663Y-74238094D02*
X112304663Y-74238094D01*
X112304663Y-74238094D02*
X112304663Y-73999999D01*
X112304663Y-73999999D02*
X112352282Y-73857142D01*
X112352282Y-73857142D02*
X112447520Y-73761904D01*
X112447520Y-73761904D02*
X112542758Y-73714285D01*
X112542758Y-73714285D02*
X112733234Y-73666666D01*
X112733234Y-73666666D02*
X112876091Y-73666666D01*
X112876091Y-73666666D02*
X113066567Y-73714285D01*
X113066567Y-73714285D02*
X113161805Y-73761904D01*
X113161805Y-73761904D02*
X113257044Y-73857142D01*
X113257044Y-73857142D02*
X113304663Y-73999999D01*
X113304663Y-73999999D02*
X113304663Y-74238094D01*
X112304663Y-73333332D02*
X112304663Y-72714285D01*
X112304663Y-72714285D02*
X112685615Y-73047618D01*
X112685615Y-73047618D02*
X112685615Y-72904761D01*
X112685615Y-72904761D02*
X112733234Y-72809523D01*
X112733234Y-72809523D02*
X112780853Y-72761904D01*
X112780853Y-72761904D02*
X112876091Y-72714285D01*
X112876091Y-72714285D02*
X113114186Y-72714285D01*
X113114186Y-72714285D02*
X113209424Y-72761904D01*
X113209424Y-72761904D02*
X113257044Y-72809523D01*
X113257044Y-72809523D02*
X113304663Y-72904761D01*
X113304663Y-72904761D02*
X113304663Y-73190475D01*
X113304663Y-73190475D02*
X113257044Y-73285713D01*
X113257044Y-73285713D02*
X113209424Y-73333332D01*
X110333333Y-79604663D02*
X110000000Y-79128472D01*
X109761905Y-79604663D02*
X109761905Y-78604663D01*
X109761905Y-78604663D02*
X110142857Y-78604663D01*
X110142857Y-78604663D02*
X110238095Y-78652282D01*
X110238095Y-78652282D02*
X110285714Y-78699901D01*
X110285714Y-78699901D02*
X110333333Y-78795139D01*
X110333333Y-78795139D02*
X110333333Y-78937996D01*
X110333333Y-78937996D02*
X110285714Y-79033234D01*
X110285714Y-79033234D02*
X110238095Y-79080853D01*
X110238095Y-79080853D02*
X110142857Y-79128472D01*
X110142857Y-79128472D02*
X109761905Y-79128472D01*
X111190476Y-78604663D02*
X111000000Y-78604663D01*
X111000000Y-78604663D02*
X110904762Y-78652282D01*
X110904762Y-78652282D02*
X110857143Y-78699901D01*
X110857143Y-78699901D02*
X110761905Y-78842758D01*
X110761905Y-78842758D02*
X110714286Y-79033234D01*
X110714286Y-79033234D02*
X110714286Y-79414186D01*
X110714286Y-79414186D02*
X110761905Y-79509424D01*
X110761905Y-79509424D02*
X110809524Y-79557044D01*
X110809524Y-79557044D02*
X110904762Y-79604663D01*
X110904762Y-79604663D02*
X111095238Y-79604663D01*
X111095238Y-79604663D02*
X111190476Y-79557044D01*
X111190476Y-79557044D02*
X111238095Y-79509424D01*
X111238095Y-79509424D02*
X111285714Y-79414186D01*
X111285714Y-79414186D02*
X111285714Y-79176091D01*
X111285714Y-79176091D02*
X111238095Y-79080853D01*
X111238095Y-79080853D02*
X111190476Y-79033234D01*
X111190476Y-79033234D02*
X111095238Y-78985615D01*
X111095238Y-78985615D02*
X110904762Y-78985615D01*
X110904762Y-78985615D02*
X110809524Y-79033234D01*
X110809524Y-79033234D02*
X110761905Y-79080853D01*
X110761905Y-79080853D02*
X110714286Y-79176091D01*
D10*
X109920833Y-59304559D02*
X109587500Y-58828368D01*
X109349405Y-59304559D02*
X109349405Y-58304559D01*
X109349405Y-58304559D02*
X109730357Y-58304559D01*
X109730357Y-58304559D02*
X109825595Y-58352178D01*
X109825595Y-58352178D02*
X109873214Y-58399797D01*
X109873214Y-58399797D02*
X109920833Y-58495035D01*
X109920833Y-58495035D02*
X109920833Y-58637892D01*
X109920833Y-58637892D02*
X109873214Y-58733130D01*
X109873214Y-58733130D02*
X109825595Y-58780749D01*
X109825595Y-58780749D02*
X109730357Y-58828368D01*
X109730357Y-58828368D02*
X109349405Y-58828368D01*
X110301786Y-58399797D02*
X110349405Y-58352178D01*
X110349405Y-58352178D02*
X110444643Y-58304559D01*
X110444643Y-58304559D02*
X110682738Y-58304559D01*
X110682738Y-58304559D02*
X110777976Y-58352178D01*
X110777976Y-58352178D02*
X110825595Y-58399797D01*
X110825595Y-58399797D02*
X110873214Y-58495035D01*
X110873214Y-58495035D02*
X110873214Y-58590273D01*
X110873214Y-58590273D02*
X110825595Y-58733130D01*
X110825595Y-58733130D02*
X110254167Y-59304559D01*
X110254167Y-59304559D02*
X110873214Y-59304559D01*
D13*
%TO.C,R1*%
X102227064Y-75765000D02*
X101772936Y-75765000D01*
X102227064Y-77235000D02*
X101772936Y-77235000D01*
D14*
%TO.C,IC1*%
X102950000Y-57775000D02*
X102950000Y-56225000D01*
X103135000Y-52675000D02*
X111785000Y-52675000D01*
X103135000Y-55875000D02*
X103135000Y-52675000D01*
X111785000Y-52675000D02*
X111785000Y-55875000D01*
X111785000Y-55875000D02*
X103135000Y-55875000D01*
D13*
%TO.C,J3*%
X76890000Y-60790000D02*
X76890000Y-73210000D01*
X81620000Y-60790000D02*
X76890000Y-60790000D01*
X81620000Y-73210000D02*
X76890000Y-73210000D01*
X87840000Y-73370000D02*
X87340000Y-73870000D01*
X88340000Y-73870000D02*
X87340000Y-73870000D01*
X88340000Y-73870000D02*
X87840000Y-73370000D01*
X90110000Y-60790000D02*
X84370000Y-60790000D01*
X90110000Y-60790000D02*
X90110000Y-73210000D01*
X90110000Y-73210000D02*
X84370000Y-73210000D01*
%TO.C,D5*%
X98840000Y-59650000D02*
X98840000Y-61350000D01*
X98840000Y-59650000D02*
X101500000Y-59650000D01*
X98840000Y-61350000D02*
X101500000Y-61350000D01*
%TO.C,R7*%
X85727064Y-55265000D02*
X85272936Y-55265000D01*
X85727064Y-56735000D02*
X85272936Y-56735000D01*
%TO.C,C1*%
X100265000Y-53738748D02*
X100265000Y-54261252D01*
X101735000Y-53738748D02*
X101735000Y-54261252D01*
%TO.C,U1*%
X91990000Y-53340000D02*
X91990000Y-53695000D01*
X91990000Y-57660000D02*
X91990000Y-57305000D01*
X94000000Y-53340000D02*
X91990000Y-53340000D01*
X94000000Y-53340000D02*
X96010000Y-53340000D01*
X94000000Y-57660000D02*
X91990000Y-57660000D01*
X94000000Y-57660000D02*
X96010000Y-57660000D01*
X96010000Y-53340000D02*
X96010000Y-53695000D01*
X96010000Y-57660000D02*
X96010000Y-57305000D01*
X96927500Y-57635000D02*
X96447500Y-57635000D01*
X96687500Y-57305000D01*
X96927500Y-57635000D01*
G36*
X96927500Y-57635000D02*
G01*
X96447500Y-57635000D01*
X96687500Y-57305000D01*
X96927500Y-57635000D01*
G37*
%TO.C,Q1*%
X94437500Y-62490000D02*
X93787500Y-62490000D01*
X94437500Y-62490000D02*
X95087500Y-62490000D01*
X94437500Y-65610000D02*
X93787500Y-65610000D01*
X94437500Y-65610000D02*
X95087500Y-65610000D01*
X93275000Y-62540000D02*
X93035000Y-62210000D01*
X93515000Y-62210000D01*
X93275000Y-62540000D01*
G36*
X93275000Y-62540000D02*
G01*
X93035000Y-62210000D01*
X93515000Y-62210000D01*
X93275000Y-62540000D01*
G37*
%TO.C,R3*%
X92765000Y-73772936D02*
X92765000Y-74227064D01*
X94235000Y-73772936D02*
X94235000Y-74227064D01*
%TO.C,J2*%
X113890000Y-60790000D02*
X119630000Y-60790000D01*
X113890000Y-73210000D02*
X113890000Y-60790000D01*
X113890000Y-73210000D02*
X119630000Y-73210000D01*
X115660000Y-60130000D02*
X116160000Y-60630000D01*
X115660000Y-60130000D02*
X116660000Y-60130000D01*
X116160000Y-60630000D02*
X116660000Y-60130000D01*
X122380000Y-60790000D02*
X127110000Y-60790000D01*
X122380000Y-73210000D02*
X127110000Y-73210000D01*
X127110000Y-73210000D02*
X127110000Y-60790000D01*
%TO.C,D4*%
X90060000Y-75650000D02*
X87400000Y-75650000D01*
X90060000Y-77350000D02*
X90060000Y-75650000D01*
X90060000Y-77350000D02*
X87400000Y-77350000D01*
%TO.C,Q2*%
X94437500Y-67490000D02*
X93787500Y-67490000D01*
X94437500Y-67490000D02*
X95087500Y-67490000D01*
X94437500Y-70610000D02*
X93787500Y-70610000D01*
X94437500Y-70610000D02*
X95087500Y-70610000D01*
X93275000Y-67540000D02*
X93035000Y-67210000D01*
X93515000Y-67210000D01*
X93275000Y-67540000D01*
G36*
X93275000Y-67540000D02*
G01*
X93035000Y-67210000D01*
X93515000Y-67210000D01*
X93275000Y-67540000D01*
G37*
%TO.C,R5*%
X114765000Y-52772936D02*
X114765000Y-53227064D01*
X116235000Y-52772936D02*
X116235000Y-53227064D01*
%TO.C,R4*%
X97360436Y-74265000D02*
X97814564Y-74265000D01*
X97360436Y-75735000D02*
X97814564Y-75735000D01*
%TO.C,SW1*%
X97870000Y-63060000D02*
X97870000Y-70920000D01*
X97870000Y-70920000D02*
X108150000Y-70920000D01*
X100360000Y-63120000D02*
X100360000Y-70860000D01*
X100360000Y-70860000D02*
X105660000Y-70860000D01*
X102010000Y-63120000D02*
X100360000Y-63120000D01*
X105660000Y-63120000D02*
X104010000Y-63120000D01*
X105660000Y-70860000D02*
X105660000Y-63120000D01*
X108150000Y-63060000D02*
X97870000Y-63060000D01*
X108150000Y-70920000D02*
X108150000Y-63060000D01*
X104010000Y-63120000D02*
G75*
G02*
X102010000Y-63120000I-1000000J0D01*
G01*
%TO.C,D1*%
X110150000Y-62890000D02*
X110150000Y-65550000D01*
X111850000Y-62890000D02*
X111850000Y-65550000D01*
X111850000Y-62890000D02*
X110150000Y-62890000D01*
%TO.C,D2*%
X110150000Y-67390000D02*
X110150000Y-70050000D01*
X111850000Y-67390000D02*
X111850000Y-70050000D01*
X111850000Y-67390000D02*
X110150000Y-67390000D01*
%TO.C,Q3*%
X87362500Y-50990000D02*
X86562500Y-50990000D01*
X87362500Y-50990000D02*
X88162500Y-50990000D01*
X87362500Y-54110000D02*
X86562500Y-54110000D01*
X87362500Y-54110000D02*
X88162500Y-54110000D01*
X88902500Y-54390000D02*
X88422500Y-54390000D01*
X88662500Y-54060000D01*
X88902500Y-54390000D01*
G36*
X88902500Y-54390000D02*
G01*
X88422500Y-54390000D01*
X88662500Y-54060000D01*
X88902500Y-54390000D01*
G37*
%TO.C,D3*%
X110150000Y-71890000D02*
X110150000Y-74550000D01*
X111850000Y-71890000D02*
X111850000Y-74550000D01*
X111850000Y-71890000D02*
X110150000Y-71890000D01*
%TO.C,R6*%
X110727064Y-76765000D02*
X110272936Y-76765000D01*
X110727064Y-78235000D02*
X110272936Y-78235000D01*
%TO.C,R2*%
X109860436Y-59765000D02*
X110314564Y-59765000D01*
X109860436Y-61235000D02*
X110314564Y-61235000D01*
%TD*%
%LPC*%
D15*
%TO.C,R1*%
X102912500Y-76500000D03*
X101087500Y-76500000D03*
%TD*%
D16*
%TO.C,IC1*%
X103650000Y-57000000D03*
X104920000Y-57000000D03*
X106190000Y-57000000D03*
X107460000Y-57000000D03*
X108730000Y-57000000D03*
X110000000Y-57000000D03*
X111270000Y-57000000D03*
X111270000Y-51550000D03*
X110000000Y-51550000D03*
X108730000Y-51550000D03*
X107460000Y-51550000D03*
X106190000Y-51550000D03*
X104920000Y-51550000D03*
X103650000Y-51550000D03*
%TD*%
D17*
%TO.C,J3*%
X83000000Y-61000000D03*
X83000000Y-73000000D03*
D18*
X87840000Y-69550000D03*
D19*
X85300000Y-68530000D03*
X87840000Y-67510000D03*
X85300000Y-66490000D03*
X87840000Y-65470000D03*
X85300000Y-64450000D03*
%TD*%
D20*
%TO.C,D5*%
X99400000Y-60500000D03*
X101500000Y-60500000D03*
%TD*%
D15*
%TO.C,R7*%
X86412500Y-56000000D03*
X84587500Y-56000000D03*
%TD*%
D21*
%TO.C,C1*%
X101000000Y-53050000D03*
X101000000Y-54950000D03*
%TD*%
D22*
%TO.C,U1*%
X96750000Y-56770000D03*
X96750000Y-54230000D03*
X91250000Y-54230000D03*
X91250000Y-56770000D03*
%TD*%
D23*
%TO.C,Q1*%
X93500000Y-63100000D03*
X93500000Y-65000000D03*
X95375000Y-64050000D03*
%TD*%
D24*
%TO.C,R3*%
X93500000Y-73087500D03*
X93500000Y-74912500D03*
%TD*%
D17*
%TO.C,J2*%
X121000000Y-73000000D03*
X121000000Y-61000000D03*
D18*
X116160000Y-64450000D03*
D19*
X118700000Y-65470000D03*
X116160000Y-66490000D03*
X118700000Y-67510000D03*
X116160000Y-68530000D03*
X118700000Y-69550000D03*
%TD*%
D25*
%TO.C,D4*%
X89500000Y-76500000D03*
X87400000Y-76500000D03*
%TD*%
D23*
%TO.C,Q2*%
X93500000Y-68100000D03*
X93500000Y-70000000D03*
X95375000Y-69050000D03*
%TD*%
D24*
%TO.C,R5*%
X115500000Y-52087500D03*
X115500000Y-53912500D03*
%TD*%
D26*
%TO.C,R4*%
X96675000Y-75000000D03*
X98500000Y-75000000D03*
%TD*%
D27*
%TO.C,SW1*%
X99200000Y-64450000D03*
D28*
X99200000Y-66990000D03*
X99200000Y-69530000D03*
X106820000Y-69530000D03*
X106820000Y-66990000D03*
X106820000Y-64450000D03*
%TD*%
D29*
%TO.C,D1*%
X111000000Y-63450000D03*
X111000000Y-65550000D03*
%TD*%
%TO.C,D2*%
X111000000Y-67950000D03*
X111000000Y-70050000D03*
%TD*%
D30*
%TO.C,Q3*%
X88500000Y-53500000D03*
X88500000Y-51600000D03*
X86225000Y-52550000D03*
%TD*%
D29*
%TO.C,D3*%
X111000000Y-72450000D03*
X111000000Y-74550000D03*
%TD*%
D15*
%TO.C,R6*%
X111412500Y-77500000D03*
X109587500Y-77500000D03*
%TD*%
D26*
%TO.C,R2*%
X109175000Y-60500000D03*
X111000000Y-60500000D03*
%TD*%
D31*
%TO.C,J1*%
X89580000Y-80000000D03*
X87040000Y-82540000D03*
X87040000Y-80000000D03*
D32*
X84500000Y-80000000D03*
D31*
X92120000Y-82540000D03*
X92120000Y-80000000D03*
X97200000Y-82540000D03*
X94660000Y-82540000D03*
X94660000Y-80000000D03*
X102280000Y-82540000D03*
X102280000Y-80000000D03*
X99740000Y-80000000D03*
X99740000Y-82540000D03*
X97200000Y-80000000D03*
X84500000Y-82540000D03*
X89580000Y-82540000D03*
%TD*%
%LPD*%
M02*
