%TF.GenerationSoftware,KiCad,Pcbnew,8.0.1*%
%TF.CreationDate,2024-05-29T09:24:11+02:00*%
%TF.ProjectId,KiCad schema,4b694361-6420-4736-9368-656d612e6b69,rev?*%
%TF.SameCoordinates,Original*%
%TF.FileFunction,Copper,L2,Bot*%
%TF.FilePolarity,Positive*%
%FSLAX46Y46*%
G04 Gerber Fmt 4.6, Leading zero omitted, Abs format (unit mm)*
G04 Created by KiCad (PCBNEW 8.0.1) date 2024-05-29 09:24:11*
%MOMM*%
%LPD*%
G01*
G04 APERTURE LIST*
%TA.AperFunction,ComponentPad*%
%ADD10R,1.520000X1.520000*%
%TD*%
%TA.AperFunction,ComponentPad*%
%ADD11C,1.520000*%
%TD*%
%TA.AperFunction,ComponentPad*%
%ADD12O,1.700000X1.700000*%
%TD*%
%TA.AperFunction,ComponentPad*%
%ADD13R,1.700000X1.700000*%
%TD*%
%TA.AperFunction,ViaPad*%
%ADD14C,0.900000*%
%TD*%
%TA.AperFunction,Conductor*%
%ADD15C,0.200000*%
%TD*%
G04 APERTURE END LIST*
D10*
%TO.P,J3,1*%
%TO.N,5V_METER*%
X87840000Y-69550000D03*
D11*
%TO.P,J3,2*%
%TO.N,EXT_DATA_REQ*%
X85300000Y-68530000D03*
%TO.P,J3,3*%
%TO.N,EXT_DATA_GND*%
X87840000Y-67510000D03*
%TO.P,J3,4*%
%TO.N,unconnected-(J3-Pad4)*%
X85300000Y-66490000D03*
%TO.P,J3,5*%
%TO.N,EXT_DATA*%
X87840000Y-65470000D03*
%TO.P,J3,6*%
%TO.N,EXT_DATA_GND*%
X85300000Y-64450000D03*
%TD*%
D10*
%TO.P,J2,1*%
%TO.N,5V_METER*%
X116160000Y-64450000D03*
D11*
%TO.P,J2,2*%
%TO.N,METER_DATA_REQ*%
X118700000Y-65470000D03*
%TO.P,J2,3*%
%TO.N,EXT_DATA_GND*%
X116160000Y-66490000D03*
%TO.P,J2,4*%
%TO.N,unconnected-(J2-Pad4)*%
X118700000Y-67510000D03*
%TO.P,J2,5*%
%TO.N,meter_DATAOUT*%
X116160000Y-68530000D03*
%TO.P,J2,6*%
%TO.N,EXT_DATA_GND*%
X118700000Y-69550000D03*
%TD*%
D12*
%TO.P,J1,3V3,Pin_14*%
%TO.N,+3.3V*%
X89580000Y-80000000D03*
%TO.P,J1,5VIN,Pin_2*%
%TO.N,unconnected-(J1-Pin_2-Pad5VIN)*%
X87040000Y-82540000D03*
%TO.P,J1,5VOUT,Pin_15*%
%TO.N,VCC*%
X87040000Y-80000000D03*
D13*
%TO.P,J1,BAT,Pin_16*%
%TO.N,unconnected-(J1-Pin_16-PadBAT)*%
X84500000Y-80000000D03*
D12*
%TO.P,J1,G13,Pin_4*%
%TO.N,Reader_IN*%
X92120000Y-82540000D03*
%TO.P,J1,G14,Pin_13*%
%TO.N,unconnected-(J1-Pin_13-PadG14)*%
X92120000Y-80000000D03*
%TO.P,J1,G18,Pin_6*%
%TO.N,unconnected-(J1-Pin_6-PadG18)*%
X97200000Y-82540000D03*
%TO.P,J1,G21,Pin_5*%
%TO.N,unconnected-(J1-Pin_5-PadG21)*%
X94660000Y-82540000D03*
%TO.P,J1,G22,Pin_12*%
%TO.N,unconnected-(J1-Pin_12-PadG22)*%
X94660000Y-80000000D03*
%TO.P,J1,G23,Pin_8*%
%TO.N,unconnected-(J1-Pin_8-PadG23)*%
X102280000Y-82540000D03*
%TO.P,J1,G25,Pin_9*%
%TO.N,unconnected-(J1-Pin_9-PadG25)*%
X102280000Y-80000000D03*
%TO.P,J1,G26,Pin_10*%
%TO.N,m5_DATA_REQ*%
X99740000Y-80000000D03*
%TO.P,J1,G34,Pin_7*%
%TO.N,unconnected-(J1-Pin_7-PadG34)*%
X99740000Y-82540000D03*
%TO.P,J1,G36,Pin_11*%
%TO.N,unconnected-(J1-Pin_11-PadG36)*%
X97200000Y-80000000D03*
%TO.P,J1,GND,Pin_1*%
%TO.N,EXT_DATA_GND*%
X84500000Y-82540000D03*
%TO.P,J1,RST,Pin_3*%
%TO.N,unconnected-(J1-Pin_3-PadRST)*%
X89580000Y-82540000D03*
%TD*%
D14*
%TO.N,VCC*%
X88000000Y-76500000D03*
X89000000Y-71750000D03*
X93000000Y-61000000D03*
%TO.N,meter_DATAOUT*%
X113000000Y-65000000D03*
X112500000Y-62000000D03*
%TO.N,+3.3V*%
X92000000Y-64000000D03*
X89580000Y-75580000D03*
%TO.N,Net-(Q1-E)*%
X102912500Y-74000000D03*
X97000000Y-63500000D03*
%TO.N,5V_METER*%
X100000000Y-62500000D03*
X114500000Y-64000000D03*
%TD*%
D15*
%TO.N,VCC*%
X89000000Y-73000000D02*
X88000000Y-74000000D01*
X88000000Y-74000000D02*
X88000000Y-76500000D01*
X93000000Y-61000000D02*
X89000000Y-65000000D01*
X89000000Y-65000000D02*
X89000000Y-71750000D01*
X89000000Y-71750000D02*
X89000000Y-73000000D01*
%TO.N,meter_DATAOUT*%
X113000000Y-65000000D02*
X113000000Y-62500000D01*
X113000000Y-62500000D02*
X112500000Y-62000000D01*
%TO.N,+3.3V*%
X90500000Y-71500000D02*
X90500000Y-74660000D01*
X92000000Y-64000000D02*
X92000000Y-70000000D01*
X92000000Y-70000000D02*
X90500000Y-71500000D01*
X90500000Y-74660000D02*
X89580000Y-75580000D01*
%TO.N,Net-(Q1-E)*%
X97000000Y-63500000D02*
X97000000Y-70500000D01*
X100500000Y-74000000D02*
X102912500Y-74000000D01*
X97000000Y-70500000D02*
X100500000Y-74000000D01*
%TO.N,5V_METER*%
X101250000Y-61250000D02*
X100000000Y-62500000D01*
X114500000Y-62939339D02*
X112810661Y-61250000D01*
X114500000Y-64000000D02*
X114500000Y-62939339D01*
X112810661Y-61250000D02*
X101250000Y-61250000D01*
%TD*%
M02*
