M48
; DRILL file {KiCad 8.0.1} date 2024-05-29T09:24:11+0200
; FORMAT={-:-/ absolute / inch / decimal}
; #@! TF.CreationDate,2024-05-29T09:24:11+02:00
; #@! TF.GenerationSoftware,Kicad,Pcbnew,8.0.1
; #@! TF.FileFunction,Plated,1,2,PTH
FMAT,2
INCH
; #@! TA.AperFunction,Plated,PTH,ViaDrill
T1C0.0157
; #@! TA.AperFunction,Plated,PTH,ComponentDrill
T2C0.0354
; #@! TA.AperFunction,Plated,PTH,ComponentDrill
T3C0.0394
%
G90
G05
T1
X3.4646Y-3.0118
X3.5039Y-2.8248
X3.5268Y-2.9756
X3.622Y-2.5197
X3.6614Y-2.4016
X3.8189Y-2.5
X3.937Y-2.4606
X4.0517Y-2.9134
X4.4291Y-2.4409
X4.4488Y-2.5591
X4.5079Y-2.5197
T2
X3.3583Y-2.5374
X3.3583Y-2.6177
X3.3583Y-2.698
X3.4583Y-2.5776
X3.4583Y-2.6579
X3.4583Y-2.7382
X4.5732Y-2.5374
X4.5732Y-2.6177
X4.5732Y-2.698
X4.6732Y-2.5776
X4.6732Y-2.6579
X4.6732Y-2.7382
T3
X3.3268Y-3.1496
X3.3268Y-3.2496
X3.4268Y-3.1496
X3.4268Y-3.2496
X3.5268Y-3.1496
X3.5268Y-3.2496
X3.6268Y-3.1496
X3.6268Y-3.2496
X3.7268Y-3.1496
X3.7268Y-3.2496
X3.8268Y-3.1496
X3.8268Y-3.2496
X3.9268Y-3.1496
X3.9268Y-3.2496
X4.0268Y-3.1496
X4.0268Y-3.2496
M30
