%TF.GenerationSoftware,KiCad,Pcbnew,8.0.1*%
%TF.CreationDate,2024-05-29T09:24:11+02:00*%
%TF.ProjectId,KiCad schema,4b694361-6420-4736-9368-656d612e6b69,rev?*%
%TF.SameCoordinates,Original*%
%TF.FileFunction,Copper,L1,Top*%
%TF.FilePolarity,Positive*%
%FSLAX46Y46*%
G04 Gerber Fmt 4.6, Leading zero omitted, Abs format (unit mm)*
G04 Created by KiCad (PCBNEW 8.0.1) date 2024-05-29 09:24:11*
%MOMM*%
%LPD*%
G01*
G04 APERTURE LIST*
G04 Aperture macros list*
%AMRoundRect*
0 Rectangle with rounded corners*
0 $1 Rounding radius*
0 $2 $3 $4 $5 $6 $7 $8 $9 X,Y pos of 4 corners*
0 Add a 4 corners polygon primitive as box body*
4,1,4,$2,$3,$4,$5,$6,$7,$8,$9,$2,$3,0*
0 Add four circle primitives for the rounded corners*
1,1,$1+$1,$2,$3*
1,1,$1+$1,$4,$5*
1,1,$1+$1,$6,$7*
1,1,$1+$1,$8,$9*
0 Add four rect primitives between the rounded corners*
20,1,$1+$1,$2,$3,$4,$5,0*
20,1,$1+$1,$4,$5,$6,$7,0*
20,1,$1+$1,$6,$7,$8,$9,0*
20,1,$1+$1,$8,$9,$2,$3,0*%
G04 Aperture macros list end*
%TA.AperFunction,SMDPad,CuDef*%
%ADD10RoundRect,0.250000X0.262500X0.450000X-0.262500X0.450000X-0.262500X-0.450000X0.262500X-0.450000X0*%
%TD*%
%TA.AperFunction,SMDPad,CuDef*%
%ADD11R,0.700000X1.550000*%
%TD*%
%TA.AperFunction,ComponentPad*%
%ADD12R,1.520000X1.520000*%
%TD*%
%TA.AperFunction,ComponentPad*%
%ADD13C,1.520000*%
%TD*%
%TA.AperFunction,SMDPad,CuDef*%
%ADD14RoundRect,0.250000X0.250000X0.475000X-0.250000X0.475000X-0.250000X-0.475000X0.250000X-0.475000X0*%
%TD*%
%TA.AperFunction,SMDPad,CuDef*%
%ADD15RoundRect,0.150000X-0.587500X-0.150000X0.587500X-0.150000X0.587500X0.150000X-0.587500X0.150000X0*%
%TD*%
%TA.AperFunction,SMDPad,CuDef*%
%ADD16RoundRect,0.150000X-0.150000X-0.200000X0.150000X-0.200000X0.150000X0.200000X-0.150000X0.200000X0*%
%TD*%
%TA.AperFunction,SMDPad,CuDef*%
%ADD17R,1.500000X1.780000*%
%TD*%
%TA.AperFunction,SMDPad,CuDef*%
%ADD18RoundRect,0.250000X-0.450000X0.262500X-0.450000X-0.262500X0.450000X-0.262500X0.450000X0.262500X0*%
%TD*%
%TA.AperFunction,SMDPad,CuDef*%
%ADD19RoundRect,0.250000X-0.262500X-0.450000X0.262500X-0.450000X0.262500X0.450000X-0.262500X0.450000X0*%
%TD*%
%TA.AperFunction,SMDPad,CuDef*%
%ADD20R,2.000000X1.780000*%
%TD*%
%TA.AperFunction,ComponentPad*%
%ADD21O,1.700000X1.700000*%
%TD*%
%TA.AperFunction,ComponentPad*%
%ADD22R,1.700000X1.700000*%
%TD*%
%TA.AperFunction,ViaPad*%
%ADD23C,0.900000*%
%TD*%
%TA.AperFunction,Conductor*%
%ADD24C,0.200000*%
%TD*%
G04 APERTURE END LIST*
D10*
%TO.P,R1,1*%
%TO.N,Net-(Q1-E)*%
X102912500Y-76500000D03*
%TO.P,R1,2*%
%TO.N,m5_DATA_REQ*%
X101087500Y-76500000D03*
%TD*%
D11*
%TO.P,IC1,1,1A*%
%TO.N,meter_DATAOUT*%
X102190000Y-57725000D03*
%TO.P,IC1,2,1Y*%
%TO.N,Net-(IC1-1Y)*%
X103460000Y-57725000D03*
%TO.P,IC1,3,2A*%
%TO.N,unconnected-(IC1-2A-Pad3)*%
X104730000Y-57725000D03*
%TO.P,IC1,4,2Y*%
%TO.N,unconnected-(IC1-2Y-Pad4)*%
X106000000Y-57725000D03*
%TO.P,IC1,5,3A*%
%TO.N,unconnected-(IC1-3A-Pad5)*%
X107270000Y-57725000D03*
%TO.P,IC1,6,3Y*%
%TO.N,unconnected-(IC1-3Y-Pad6)*%
X108540000Y-57725000D03*
%TO.P,IC1,7,GND*%
%TO.N,EXT_DATA_GND*%
X109810000Y-57725000D03*
%TO.P,IC1,8,4Y*%
%TO.N,unconnected-(IC1-4Y-Pad8)*%
X109810000Y-52275000D03*
%TO.P,IC1,9,4A*%
%TO.N,unconnected-(IC1-4A-Pad9)*%
X108540000Y-52275000D03*
%TO.P,IC1,10,5Y*%
%TO.N,unconnected-(IC1-5Y-Pad10)*%
X107270000Y-52275000D03*
%TO.P,IC1,11,5A*%
%TO.N,unconnected-(IC1-5A-Pad11)*%
X106000000Y-52275000D03*
%TO.P,IC1,12,6Y*%
%TO.N,unconnected-(IC1-6Y-Pad12)*%
X104730000Y-52275000D03*
%TO.P,IC1,13,6A*%
%TO.N,unconnected-(IC1-6A-Pad13)*%
X103460000Y-52275000D03*
%TO.P,IC1,14,VCC*%
%TO.N,VCC*%
X102190000Y-52275000D03*
%TD*%
D12*
%TO.P,J3,1*%
%TO.N,5V_METER*%
X87840000Y-69550000D03*
D13*
%TO.P,J3,2*%
%TO.N,EXT_DATA_REQ*%
X85300000Y-68530000D03*
%TO.P,J3,3*%
%TO.N,EXT_DATA_GND*%
X87840000Y-67510000D03*
%TO.P,J3,4*%
%TO.N,unconnected-(J3-Pad4)*%
X85300000Y-66490000D03*
%TO.P,J3,5*%
%TO.N,EXT_DATA*%
X87840000Y-65470000D03*
%TO.P,J3,6*%
%TO.N,EXT_DATA_GND*%
X85300000Y-64450000D03*
%TD*%
D14*
%TO.P,C1,1*%
%TO.N,VCC*%
X85450000Y-76000000D03*
%TO.P,C1,2*%
%TO.N,EXT_DATA_GND*%
X83550000Y-76000000D03*
%TD*%
D15*
%TO.P,Q1,1,B*%
%TO.N,+3.3V*%
X93500000Y-63100000D03*
%TO.P,Q1,2,E*%
%TO.N,Net-(Q1-E)*%
X93500000Y-65000000D03*
%TO.P,Q1,3,C*%
%TO.N,Net-(Q1-C)*%
X95375000Y-64050000D03*
%TD*%
D16*
%TO.P,D3,1,K*%
%TO.N,METER_DATA_REQ*%
X111200000Y-70500000D03*
%TO.P,D3,2,A*%
%TO.N,Net-(D3-A)*%
X109800000Y-70500000D03*
%TD*%
D17*
%TO.P,U1,1*%
%TO.N,Net-(R5-Pad1)*%
X95265000Y-57270000D03*
%TO.P,U1,2*%
%TO.N,EXT_DATA_GND*%
X95265000Y-54730000D03*
%TO.P,U1,3*%
X85735000Y-54730000D03*
%TO.P,U1,4*%
%TO.N,EXT_DATA*%
X85735000Y-57270000D03*
%TD*%
D18*
%TO.P,R3,1*%
%TO.N,Net-(IC1-1Y)*%
X92500000Y-72087500D03*
%TO.P,R3,2*%
%TO.N,Reader_IN*%
X92500000Y-73912500D03*
%TD*%
D12*
%TO.P,J2,1*%
%TO.N,5V_METER*%
X116160000Y-64450000D03*
D13*
%TO.P,J2,2*%
%TO.N,METER_DATA_REQ*%
X118700000Y-65470000D03*
%TO.P,J2,3*%
%TO.N,EXT_DATA_GND*%
X116160000Y-66490000D03*
%TO.P,J2,4*%
%TO.N,unconnected-(J2-Pad4)*%
X118700000Y-67510000D03*
%TO.P,J2,5*%
%TO.N,meter_DATAOUT*%
X116160000Y-68530000D03*
%TO.P,J2,6*%
%TO.N,EXT_DATA_GND*%
X118700000Y-69550000D03*
%TD*%
D15*
%TO.P,Q2,1,B*%
%TO.N,Net-(Q1-C)*%
X93500000Y-68100000D03*
%TO.P,Q2,2,E*%
%TO.N,VCC*%
X93500000Y-70000000D03*
%TO.P,Q2,3,C*%
%TO.N,DATA_REQ*%
X95375000Y-69050000D03*
%TD*%
D18*
%TO.P,R5,1*%
%TO.N,Net-(R5-Pad1)*%
X113500000Y-52087500D03*
%TO.P,R5,2*%
%TO.N,Net-(IC1-1Y)*%
X113500000Y-53912500D03*
%TD*%
D19*
%TO.P,R4,1*%
%TO.N,Reader_IN*%
X95587500Y-74500000D03*
%TO.P,R4,2*%
%TO.N,EXT_DATA_GND*%
X97412500Y-74500000D03*
%TD*%
D20*
%TO.P,SW1,1*%
%TO.N,5V_METER*%
X99190000Y-64460000D03*
%TO.P,SW1,2*%
%TO.N,EXT_DATA_REQ*%
X99190000Y-67000000D03*
%TO.P,SW1,3*%
%TO.N,DATA_REQ*%
X99190000Y-69540000D03*
%TO.P,SW1,4*%
%TO.N,Net-(D3-A)*%
X106810000Y-69540000D03*
%TO.P,SW1,5*%
%TO.N,Net-(D2-A)*%
X106810000Y-67000000D03*
%TO.P,SW1,6*%
%TO.N,Net-(D1-A)*%
X106810000Y-64460000D03*
%TD*%
D16*
%TO.P,D1,1,K*%
%TO.N,METER_DATA_REQ*%
X111200000Y-64500000D03*
%TO.P,D1,2,A*%
%TO.N,Net-(D1-A)*%
X109800000Y-64500000D03*
%TD*%
D10*
%TO.P,R6,1*%
%TO.N,EXT_DATA_GND*%
X111912500Y-74500000D03*
%TO.P,R6,2*%
%TO.N,METER_DATA_REQ*%
X110087500Y-74500000D03*
%TD*%
D19*
%TO.P,R2,1*%
%TO.N,VCC*%
X108587500Y-61500000D03*
%TO.P,R2,2*%
%TO.N,meter_DATAOUT*%
X110412500Y-61500000D03*
%TD*%
D16*
%TO.P,D2,1,K*%
%TO.N,METER_DATA_REQ*%
X111200000Y-67500000D03*
%TO.P,D2,2,A*%
%TO.N,Net-(D2-A)*%
X109800000Y-67500000D03*
%TD*%
D21*
%TO.P,J1,3V3,Pin_14*%
%TO.N,+3.3V*%
X89580000Y-80000000D03*
%TO.P,J1,5VIN,Pin_2*%
%TO.N,unconnected-(J1-Pin_2-Pad5VIN)*%
X87040000Y-82540000D03*
%TO.P,J1,5VOUT,Pin_15*%
%TO.N,VCC*%
X87040000Y-80000000D03*
D22*
%TO.P,J1,BAT,Pin_16*%
%TO.N,unconnected-(J1-Pin_16-PadBAT)*%
X84500000Y-80000000D03*
D21*
%TO.P,J1,G13,Pin_4*%
%TO.N,Reader_IN*%
X92120000Y-82540000D03*
%TO.P,J1,G14,Pin_13*%
%TO.N,unconnected-(J1-Pin_13-PadG14)*%
X92120000Y-80000000D03*
%TO.P,J1,G18,Pin_6*%
%TO.N,unconnected-(J1-Pin_6-PadG18)*%
X97200000Y-82540000D03*
%TO.P,J1,G21,Pin_5*%
%TO.N,unconnected-(J1-Pin_5-PadG21)*%
X94660000Y-82540000D03*
%TO.P,J1,G22,Pin_12*%
%TO.N,unconnected-(J1-Pin_12-PadG22)*%
X94660000Y-80000000D03*
%TO.P,J1,G23,Pin_8*%
%TO.N,unconnected-(J1-Pin_8-PadG23)*%
X102280000Y-82540000D03*
%TO.P,J1,G25,Pin_9*%
%TO.N,unconnected-(J1-Pin_9-PadG25)*%
X102280000Y-80000000D03*
%TO.P,J1,G26,Pin_10*%
%TO.N,m5_DATA_REQ*%
X99740000Y-80000000D03*
%TO.P,J1,G34,Pin_7*%
%TO.N,unconnected-(J1-Pin_7-PadG34)*%
X99740000Y-82540000D03*
%TO.P,J1,G36,Pin_11*%
%TO.N,unconnected-(J1-Pin_11-PadG36)*%
X97200000Y-80000000D03*
%TO.P,J1,GND,Pin_1*%
%TO.N,EXT_DATA_GND*%
X84500000Y-82540000D03*
%TO.P,J1,RST,Pin_3*%
%TO.N,unconnected-(J1-Pin_3-PadRST)*%
X89580000Y-82540000D03*
%TD*%
D23*
%TO.N,VCC*%
X88000000Y-76500000D03*
X89000000Y-71750000D03*
X93000000Y-61000000D03*
%TO.N,meter_DATAOUT*%
X113000000Y-65000000D03*
X112500000Y-62000000D03*
%TO.N,+3.3V*%
X92000000Y-64000000D03*
X89580000Y-75580000D03*
%TO.N,Net-(Q1-E)*%
X102912500Y-74000000D03*
X97000000Y-63500000D03*
%TO.N,5V_METER*%
X100000000Y-62500000D03*
X114500000Y-64000000D03*
%TD*%
D24*
%TO.N,METER_DATA_REQ*%
X111200000Y-73387500D02*
X110087500Y-74500000D01*
X111200000Y-70500000D02*
X111200000Y-73387500D01*
X111200000Y-70500000D02*
X111200000Y-67500000D01*
%TO.N,Net-(D3-A)*%
X108840000Y-69540000D02*
X109800000Y-70500000D01*
X106810000Y-69540000D02*
X108840000Y-69540000D01*
%TO.N,Net-(IC1-1Y)*%
X109912500Y-72087500D02*
X92500000Y-72087500D01*
X110600000Y-71400000D02*
X109912500Y-72087500D01*
X110600000Y-64109448D02*
X110600000Y-71400000D01*
X113750000Y-62750000D02*
X111959448Y-62750000D01*
X114000000Y-62500000D02*
X113750000Y-62750000D01*
X111959448Y-62750000D02*
X110600000Y-64109448D01*
X114000000Y-60000000D02*
X114000000Y-62500000D01*
X113000000Y-59000000D02*
X114000000Y-60000000D01*
X103460000Y-58180000D02*
X104280000Y-59000000D01*
X103460000Y-57725000D02*
X103460000Y-58180000D01*
X104280000Y-59000000D02*
X113000000Y-59000000D01*
%TO.N,EXT_DATA_GND*%
X110412500Y-76000000D02*
X111912500Y-74500000D01*
X109000000Y-76000000D02*
X110412500Y-76000000D01*
X106250000Y-73250000D02*
X109000000Y-76000000D01*
X99206250Y-73250000D02*
X106250000Y-73250000D01*
X97412500Y-74500000D02*
X97956250Y-74500000D01*
X97956250Y-74500000D02*
X99206250Y-73250000D01*
X113750000Y-74500000D02*
X111912500Y-74500000D01*
X118700000Y-69550000D02*
X113750000Y-74500000D01*
X96000000Y-77500000D02*
X97412500Y-76087500D01*
X95000000Y-84000000D02*
X96000000Y-83000000D01*
X85960000Y-84000000D02*
X95000000Y-84000000D01*
X84500000Y-82540000D02*
X85960000Y-84000000D01*
X96000000Y-83000000D02*
X96000000Y-77500000D01*
X97412500Y-76087500D02*
X97412500Y-74500000D01*
%TO.N,Reader_IN*%
X94010000Y-74500000D02*
X93510000Y-75000000D01*
X95587500Y-74500000D02*
X94010000Y-74500000D01*
%TO.N,VCC*%
X88000000Y-77500000D02*
X87040000Y-78460000D01*
X98000000Y-60000000D02*
X97000000Y-61000000D01*
X87500000Y-76000000D02*
X85450000Y-76000000D01*
X98000000Y-56500000D02*
X98000000Y-60000000D01*
X102190000Y-52310000D02*
X98000000Y-56500000D01*
X88000000Y-76500000D02*
X87500000Y-76000000D01*
X90750000Y-70000000D02*
X93500000Y-70000000D01*
X94000000Y-61000000D02*
X108087500Y-61000000D01*
X97000000Y-61000000D02*
X94000000Y-61000000D01*
X88000000Y-76500000D02*
X88000000Y-77500000D01*
X89000000Y-71750000D02*
X90750000Y-70000000D01*
X108087500Y-61000000D02*
X108587500Y-61500000D01*
X93150000Y-61000000D02*
X94000000Y-61000000D01*
X102190000Y-52275000D02*
X102190000Y-52310000D01*
X87040000Y-78460000D02*
X87040000Y-80000000D01*
%TO.N,meter_DATAOUT*%
X108912500Y-60000000D02*
X110412500Y-61500000D01*
X102190000Y-57725000D02*
X102190000Y-58190000D01*
X113000000Y-65370000D02*
X113000000Y-65000000D01*
X102190000Y-58190000D02*
X104000000Y-60000000D01*
X112000000Y-61500000D02*
X110412500Y-61500000D01*
X112500000Y-62000000D02*
X112000000Y-61500000D01*
X104000000Y-60000000D02*
X108912500Y-60000000D01*
X116160000Y-68530000D02*
X113000000Y-65370000D01*
%TO.N,m5_DATA_REQ*%
X99740000Y-80000000D02*
X101087500Y-78652500D01*
X101087500Y-78652500D02*
X101087500Y-76500000D01*
%TO.N,DATA_REQ*%
X98700000Y-69050000D02*
X99190000Y-69540000D01*
X95375000Y-69050000D02*
X98700000Y-69050000D01*
%TO.N,Net-(Q1-C)*%
X93500000Y-68100000D02*
X95375000Y-66225000D01*
X95375000Y-66225000D02*
X95375000Y-64050000D01*
%TO.N,+3.3V*%
X92000000Y-64000000D02*
X92600000Y-64000000D01*
X89580000Y-80000000D02*
X89580000Y-75580000D01*
X92600000Y-64000000D02*
X93500000Y-63100000D01*
%TO.N,Net-(Q1-E)*%
X94596948Y-63450000D02*
X93500000Y-64546948D01*
X102912500Y-74000000D02*
X102912500Y-76500000D01*
X97000000Y-63500000D02*
X96950000Y-63450000D01*
X96950000Y-63450000D02*
X94596948Y-63450000D01*
X93500000Y-64546948D02*
X93500000Y-65000000D01*
%TO.N,Reader_IN*%
X92120000Y-82540000D02*
X93510000Y-81150000D01*
X93510000Y-75000000D02*
X93510000Y-74922500D01*
X93510000Y-81150000D02*
X93510000Y-75000000D01*
X93510000Y-74922500D02*
X92500000Y-73912500D01*
%TO.N,EXT_DATA_GND*%
X85735000Y-54730000D02*
X84000000Y-56465000D01*
X121000000Y-67250000D02*
X118700000Y-69550000D01*
X85300000Y-64450000D02*
X87840000Y-66990000D01*
X83550000Y-76000000D02*
X84450000Y-75100000D01*
X84450000Y-75100000D02*
X84450000Y-69950000D01*
X121000000Y-64000000D02*
X121000000Y-67250000D01*
X85300000Y-59800000D02*
X85300000Y-64450000D01*
X87840000Y-66990000D02*
X87840000Y-67510000D01*
X84000000Y-56465000D02*
X84000000Y-58500000D01*
X84450000Y-69950000D02*
X84000000Y-69500000D01*
X84000000Y-58500000D02*
X85300000Y-59800000D01*
X116160000Y-66490000D02*
X116160000Y-66990000D01*
X83000000Y-81040000D02*
X83000000Y-76550000D01*
X118700000Y-69530000D02*
X118700000Y-70050000D01*
X84500000Y-82540000D02*
X83000000Y-81040000D01*
X83000000Y-76550000D02*
X83550000Y-76000000D01*
X116160000Y-66990000D02*
X118700000Y-69530000D01*
X85735000Y-54730000D02*
X95265000Y-54730000D01*
X109810000Y-57725000D02*
X114725000Y-57725000D01*
X114725000Y-57725000D02*
X121000000Y-64000000D01*
X84000000Y-69500000D02*
X84000000Y-65750000D01*
X84000000Y-65750000D02*
X85300000Y-64450000D01*
X116160000Y-67010000D02*
X116160000Y-66490000D01*
%TO.N,Net-(IC1-1Y)*%
X106297500Y-53912500D02*
X103460000Y-56750000D01*
X113500000Y-53912500D02*
X106297500Y-53912500D01*
X103460000Y-56750000D02*
X103460000Y-57725000D01*
%TO.N,METER_DATA_REQ*%
X113439339Y-64000000D02*
X114189339Y-63250000D01*
X118700000Y-64395198D02*
X118700000Y-65470000D01*
X114189339Y-63250000D02*
X117554802Y-63250000D01*
X117554802Y-63250000D02*
X118700000Y-64395198D01*
X111700000Y-64000000D02*
X113439339Y-64000000D01*
X111200000Y-67500000D02*
X111200000Y-64500000D01*
X111200000Y-64500000D02*
X111700000Y-64000000D01*
%TO.N,Net-(D1-A)*%
X106810000Y-64460000D02*
X109760000Y-64460000D01*
X109760000Y-64460000D02*
X109800000Y-64500000D01*
%TO.N,5V_METER*%
X91000000Y-63500000D02*
X92000000Y-62500000D01*
X87840000Y-69550000D02*
X88800000Y-69550000D01*
X92000000Y-62500000D02*
X97230000Y-62500000D01*
X116160000Y-64450000D02*
X114950000Y-64450000D01*
X99190000Y-63310000D02*
X99190000Y-64460000D01*
X97230000Y-62500000D02*
X99190000Y-64460000D01*
X91000000Y-67350000D02*
X91000000Y-63500000D01*
X88800000Y-69550000D02*
X91000000Y-67350000D01*
X114950000Y-64450000D02*
X114500000Y-64000000D01*
X100000000Y-62500000D02*
X99190000Y-63310000D01*
%TO.N,EXT_DATA_REQ*%
X85300000Y-69300000D02*
X85300000Y-68530000D01*
X95978052Y-67000000D02*
X93770209Y-69207843D01*
X89000000Y-71000000D02*
X87000000Y-71000000D01*
X87000000Y-71000000D02*
X85300000Y-69300000D01*
X93770209Y-69207843D02*
X90792157Y-69207843D01*
X90792157Y-69207843D02*
X89000000Y-71000000D01*
X99190000Y-67000000D02*
X95978052Y-67000000D01*
%TO.N,EXT_DATA*%
X87840000Y-59375000D02*
X87840000Y-65470000D01*
X85735000Y-57270000D02*
X87840000Y-59375000D01*
%TO.N,Net-(R5-Pad1)*%
X111912500Y-50500000D02*
X102035000Y-50500000D01*
X113500000Y-52087500D02*
X111912500Y-50500000D01*
X102035000Y-50500000D02*
X95265000Y-57270000D01*
%TO.N,Net-(D2-A)*%
X106810000Y-67000000D02*
X109300000Y-67000000D01*
X109300000Y-67000000D02*
X109800000Y-67500000D01*
%TD*%
M02*
