%TF.GenerationSoftware,KiCad,Pcbnew,8.0.1*%
%TF.CreationDate,2024-06-07T19:57:48+02:00*%
%TF.ProjectId,needforheat-p1-base-hardware,6e656564-666f-4726-9865-61742d70312d,rev?*%
%TF.SameCoordinates,Original*%
%TF.FileFunction,Copper,L2,Bot*%
%TF.FilePolarity,Positive*%
%FSLAX46Y46*%
G04 Gerber Fmt 4.6, Leading zero omitted, Abs format (unit mm)*
G04 Created by KiCad (PCBNEW 8.0.1) date 2024-06-07 19:57:48*
%MOMM*%
%LPD*%
G01*
G04 APERTURE LIST*
%TA.AperFunction,ComponentPad*%
%ADD10R,1.520000X1.520000*%
%TD*%
%TA.AperFunction,ComponentPad*%
%ADD11C,1.520000*%
%TD*%
%TA.AperFunction,ComponentPad*%
%ADD12R,1.600000X1.600000*%
%TD*%
%TA.AperFunction,ComponentPad*%
%ADD13O,1.600000X1.600000*%
%TD*%
%TA.AperFunction,ComponentPad*%
%ADD14O,1.700000X1.700000*%
%TD*%
%TA.AperFunction,ComponentPad*%
%ADD15R,1.700000X1.700000*%
%TD*%
%TA.AperFunction,ViaPad*%
%ADD16C,0.900000*%
%TD*%
%TA.AperFunction,Conductor*%
%ADD17C,0.200000*%
%TD*%
G04 APERTURE END LIST*
D10*
%TO.P,J3,1*%
%TO.N,5V_METER*%
X87840000Y-69550000D03*
D11*
%TO.P,J3,2*%
%TO.N,EXT_DATA_REQ*%
X85300000Y-68530000D03*
%TO.P,J3,3*%
%TO.N,EXT_DATA_GND*%
X87840000Y-67510000D03*
%TO.P,J3,4*%
%TO.N,unconnected-(J3-Pad4)*%
X85300000Y-66490000D03*
%TO.P,J3,5*%
%TO.N,EXT_DATA*%
X87840000Y-65470000D03*
%TO.P,J3,6*%
%TO.N,GND*%
X85300000Y-64450000D03*
%TD*%
D10*
%TO.P,J2,1*%
%TO.N,5V_METER*%
X116160000Y-64450000D03*
D11*
%TO.P,J2,2*%
%TO.N,METER_DATA_REQ*%
X118700000Y-65470000D03*
%TO.P,J2,3*%
%TO.N,GND*%
X116160000Y-66490000D03*
%TO.P,J2,4*%
%TO.N,unconnected-(J2-Pad4)*%
X118700000Y-67510000D03*
%TO.P,J2,5*%
%TO.N,meter_DATAOUT*%
X116160000Y-68530000D03*
%TO.P,J2,6*%
%TO.N,GND*%
X118700000Y-69550000D03*
%TD*%
D12*
%TO.P,SW1,1*%
%TO.N,5V_METER*%
X99200000Y-64450000D03*
D13*
%TO.P,SW1,2*%
%TO.N,EXT_DATA_REQ*%
X99200000Y-66990000D03*
%TO.P,SW1,3*%
%TO.N,DATA_REQ*%
X99200000Y-69530000D03*
%TO.P,SW1,4*%
%TO.N,Net-(D3-A)*%
X106820000Y-69530000D03*
%TO.P,SW1,5*%
%TO.N,Net-(D2-A)*%
X106820000Y-66990000D03*
%TO.P,SW1,6*%
%TO.N,Net-(D1-A)*%
X106820000Y-64450000D03*
%TD*%
D14*
%TO.P,J1,3V3,Pin_14*%
%TO.N,+3.3V*%
X89580000Y-80000000D03*
%TO.P,J1,5VIN,Pin_2*%
%TO.N,unconnected-(J1-Pin_2-Pad5VIN)*%
X87040000Y-82540000D03*
%TO.P,J1,5VOUT,Pin_15*%
%TO.N,Net-(D4-A)*%
X87040000Y-80000000D03*
D15*
%TO.P,J1,BAT,Pin_16*%
%TO.N,unconnected-(J1-Pin_16-PadBAT)*%
X84500000Y-80000000D03*
D14*
%TO.P,J1,G13,Pin_4*%
%TO.N,Reader_IN*%
X92120000Y-82540000D03*
%TO.P,J1,G14,Pin_13*%
%TO.N,unconnected-(J1-Pin_13-PadG14)*%
X92120000Y-80000000D03*
%TO.P,J1,G18,Pin_6*%
%TO.N,unconnected-(J1-Pin_6-PadG18)*%
X97200000Y-82540000D03*
%TO.P,J1,G21,Pin_5*%
%TO.N,unconnected-(J1-Pin_5-PadG21)*%
X94660000Y-82540000D03*
%TO.P,J1,G22,Pin_12*%
%TO.N,unconnected-(J1-Pin_12-PadG22)*%
X94660000Y-80000000D03*
%TO.P,J1,G23,Pin_8*%
%TO.N,unconnected-(J1-Pin_8-PadG23)*%
X102280000Y-82540000D03*
%TO.P,J1,G25,Pin_9*%
%TO.N,unconnected-(J1-Pin_9-PadG25)*%
X102280000Y-80000000D03*
%TO.P,J1,G26,Pin_10*%
%TO.N,m5_DATA_REQ*%
X99740000Y-80000000D03*
%TO.P,J1,G34,Pin_7*%
%TO.N,unconnected-(J1-Pin_7-PadG34)*%
X99740000Y-82540000D03*
%TO.P,J1,G36,Pin_11*%
%TO.N,unconnected-(J1-Pin_11-PadG36)*%
X97200000Y-80000000D03*
%TO.P,J1,GND,Pin_1*%
%TO.N,GND*%
X84500000Y-82540000D03*
%TO.P,J1,RST,Pin_3*%
%TO.N,unconnected-(J1-Pin_3-PadRST)*%
X89580000Y-82540000D03*
%TD*%
D16*
%TO.N,VCC*%
X89500000Y-72000000D03*
X90000000Y-67000000D03*
%TO.N,meter_DATAOUT*%
X114565000Y-66935000D03*
X112500000Y-62000000D03*
%TO.N,+3.3V*%
X92000000Y-65000000D03*
X91000000Y-76000000D03*
%TO.N,Net-(Q1-E)*%
X102000000Y-74000000D03*
X93500000Y-66500000D03*
%TO.N,5V_METER*%
X104000000Y-61250000D03*
X114500000Y-64000000D03*
%TO.N,GND*%
X98132169Y-53632169D03*
X104500000Y-55500000D03*
X107500000Y-55500000D03*
X99500000Y-54950000D03*
%TD*%
D17*
%TO.N,GND*%
X99500000Y-54950000D02*
X99450000Y-54950000D01*
X99450000Y-54950000D02*
X98132169Y-53632169D01*
%TO.N,Net-(Q1-E)*%
X101000000Y-74000000D02*
X102000000Y-74000000D01*
X93500000Y-66500000D02*
X101000000Y-74000000D01*
%TO.N,VCC*%
X89500000Y-67500000D02*
X90000000Y-67000000D01*
X89500000Y-72000000D02*
X89500000Y-67500000D01*
%TO.N,+3.3V*%
X92000000Y-70000000D02*
X92000000Y-65000000D01*
X91000000Y-76000000D02*
X91000000Y-71000000D01*
X91000000Y-71000000D02*
X92000000Y-70000000D01*
%TO.N,meter_DATAOUT*%
X114565000Y-66935000D02*
X112500000Y-64870000D01*
X112500000Y-64870000D02*
X112500000Y-62000000D01*
%TO.N,GND*%
X104500000Y-55500000D02*
X107500000Y-55500000D01*
%TO.N,5V_METER*%
X104000000Y-61250000D02*
X112810661Y-61250000D01*
X114500000Y-62939339D02*
X114500000Y-64000000D01*
X112810661Y-61250000D02*
X114500000Y-62939339D01*
%TD*%
M02*
